<?xml version="1.0" encoding="UTF-8"?>
<svg id="Layer_2" data-name="Layer 2" xmlns="http://www.w3.org/2000/svg" viewBox="0 0 209.94 12.72">
  <defs>
    <style>
      .cls-1 {
        fill-rule: evenodd;
      }

      .cls-1, .cls-2 {
        fill: #009888;
        stroke-width: 0px;
      }
    </style>
  </defs>
  <g id="Layer_1-2" data-name="Layer 1">
    <g>
      <path class="cls-1" d="m104.89,5.07c-1.63-.88-4.38-5.4-1.35-4.14,1.63-3.12,2.33,2.56,1.91,4.05-.23-.23-.33-.84-.65-.98-.19.28.14.84.09,1.07Z"/>
      <path class="cls-1" d="m106.01,4.88c-.61-1.77.65-6.94,1.91-3.91,3.35-1.02-.09,3.49-1.49,4.19,0-.33.33-.75.23-1.21-.28.14-.37.75-.65.93Z"/>
      <path class="cls-1" d="m106.89,5.58c.88-1.63,5.4-4.38,4.14-1.35,3.07,1.63-2.56,2.33-4.05,1.86.28-.23.84-.33.98-.65-.23-.14-.79.19-1.07.14Z"/>
      <path class="cls-1" d="m107.08,6.65c1.82-.56,6.94.84,3.87,2,.98,3.4-3.49-.19-4.14-1.58.33,0,.75.33,1.16.23-.14-.23-.75-.42-.88-.65Z"/>
      <path class="cls-1" d="m106.47,7.67c1.63.88,4.33,5.45,1.3,4.14-1.68,3.07-2.33-2.56-1.82-4.1.23.28.33.84.65.98.14-.23-.23-.79-.14-1.02Z"/>
      <path class="cls-1" d="m105.26,7.86c.56,1.77-.7,6.94-1.96,3.87-3.35,1.02.09-3.49,1.54-4.19,0,.33-.33.75-.23,1.21.28-.05.37-.65.65-.88Z"/>
      <path class="cls-1" d="m104.28,7.16c-.88,1.63-5.4,4.38-4.14,1.3-3.07-1.68,2.56-2.33,4.05-1.86-.28.23-.84.33-.98.65.23.19.79-.14,1.07-.09Z"/>
      <path class="cls-1" d="m104.24,5.95c-1.82.51-6.89-.88-3.87-2.1-.93-3.4,3.49.23,4.14,1.63-.33,0-.75-.33-1.16-.23.05.33.7.51.88.7Z"/>
      <path class="cls-1" d="m106.19,5.49c.42.28.61.88.33,1.35-.28.42-.88.61-1.35.33-.42-.28-.61-.88-.33-1.35s.88-.61,1.35-.33Z"/>
    </g>
    <path class="cls-2" d="m117.27,6.31c29.68-.31,62.98-.31,92.67,0-29.68.31-62.98.31-92.67,0h0Z"/>
    <path class="cls-2" d="m0,6.31c29.68-.31,62.98-.31,92.67,0-29.68.31-62.98.31-92.67,0h0Z"/>
  </g>
</svg>