<?xml version="1.0" encoding="UTF-8"?>
<svg id="Layer_2" data-name="Layer 2" xmlns="http://www.w3.org/2000/svg" xmlns:xlink="http://www.w3.org/1999/xlink" viewBox="0 0 1352.46 992.68">
  <defs>
    <style>
      .cls-1, .cls-2, .cls-3 {
        stroke-width: 0px;
      }

      .cls-1, .cls-3 {
        fill: #f5f5f5;
      }

      .cls-2 {
        fill: none;
      }

      .cls-4 {
        clip-path: url(#clippath);
      }

      .cls-3 {
        fill-rule: evenodd;
      }
    </style>
    <clipPath id="clippath">
      <rect class="cls-2" width="1352.46" height="992.68"/>
    </clipPath>
  </defs>
  <g id="Layer_1-2" data-name="Layer 1">
    <g class="cls-4">
      <g id="Layer_2-2" data-name="Layer 2">
        <g id="Group_789" data-name="Group 789">
          <g id="Group_768" data-name="Group 768">
            <path id="Path_4294" data-name="Path 4294" class="cls-3" d="m1240.38,279.21c-10.07-5.21-26.97-33.08-8.45-25.53,10.07-19.06,14.56,15.64,11.69,24.63-1.44-1.44-1.98-4.85-4.14-5.93-.72,1.8,1.44,5.21.9,6.83Z"/>
            <path id="Path_4295" data-name="Path 4295" class="cls-3" d="m1247.57,277.96c-3.6-10.79,3.78-42.43,11.87-24.09,20.5-6.47-.72,21.21-8.99,25.71,0-2.16,1.98-4.85,1.26-7.19-1.98.9-2.7,4.5-4.14,5.57Z"/>
            <path id="Path_4296" data-name="Path 4296" class="cls-3" d="m1252.96,282.45c5.21-10.07,33.08-26.79,25.53-8.27,19.06,10.25-15.64,14.56-24.81,11.33,1.44-1.44,4.85-1.98,6.11-4.13-1.98-.72-5.21,1.44-6.83,1.08Z"/>
            <path id="Path_4297" data-name="Path 4297" class="cls-3" d="m1253.86,288.92c10.97-3.42,42.43,5.03,23.91,12.41,5.93,20.68-21.22-1.08-25.53-9.71,2.16,0,4.85,2.16,7.19,1.44-.9-1.62-4.49-2.52-5.57-4.14Z"/>
            <path id="Path_4298" data-name="Path 4298" class="cls-3" d="m1249.91,294.86c9.89,5.39,26.43,33.62,7.73,25.53-10.61,18.7-14.38-15.82-11.15-24.81,1.44,1.44,1.98,4.85,3.96,6.11,1.08-1.8-.72-5.03-.54-6.83Z"/>
            <path id="Path_4299" data-name="Path 4299" class="cls-3" d="m1242.71,296.48c3.42,10.97-4.14,42.43-12.05,23.91-20.5,6.29.72-21.21,9.35-25.71,0,2.16-2.16,4.85-1.26,7.19,1.62-.54,2.52-4.32,3.96-5.39Z"/>
            <path id="Path_4300" data-name="Path 4300" class="cls-3" d="m1236.78,292.16c-5.21,10.07-33.26,26.61-25.53,8.27-18.7-10.25,15.82-14.38,24.81-11.33-1.44,1.44-4.85,1.98-6.11,4.13,1.8.54,5.21-1.44,6.83-1.08Z"/>
            <path id="Path_4301" data-name="Path 4301" class="cls-3" d="m1236.24,284.79c-10.97,3.24-42.43-5.21-23.55-12.59-5.75-20.68,21.22,1.26,25.53,9.89-2.16,0-4.85-2.16-7.19-1.44.54,1.44,4.32,2.52,5.21,4.14Z"/>
            <path id="Path_4302" data-name="Path 4302" class="cls-3" d="m1248.47,281.73c2.78,1.76,3.72,5.37,2.16,8.27-1.73,2.84-5.43,3.73-8.26,2.01-2.84-1.73-3.73-5.43-2.01-8.26,0-.01.01-.02.02-.03,1.67-2.78,5.28-3.67,8.06-2,.01,0,.02.01.03.02Z"/>
          </g>
          <path id="Path_4303" data-name="Path 4303" class="cls-3" d="m823.44,851.13c-10.07-5.21-26.97-33.08-8.45-25.53,10.07-19.06,14.56,15.64,11.69,24.63-1.44-1.44-1.98-4.85-4.14-5.93-.72,1.8,1.44,5.21.9,6.83Z"/>
          <path id="Path_4304" data-name="Path 4304" class="cls-3" d="m830.63,849.87c-3.6-10.79,3.78-42.43,11.87-24.09,20.5-6.47-.72,21.21-8.99,25.71,0-2.16,1.98-4.85,1.26-7.19-1.98.9-2.52,4.5-4.14,5.57Z"/>
          <path id="Path_4305" data-name="Path 4305" class="cls-3" d="m836.03,854.37c5.21-10.07,33.08-26.79,25.53-8.27,19.06,10.25-15.64,14.56-24.81,11.33,1.44-1.44,4.85-1.98,6.11-4.14-1.98-.72-5.21,1.44-6.83,1.08Z"/>
          <path id="Path_4306" data-name="Path 4306" class="cls-3" d="m836.93,860.84c10.97-3.42,42.43,5.03,23.91,12.41,5.93,20.68-21.21-1.08-25.53-9.71,2.16,0,4.85,2.16,7.19,1.44-.9-1.62-4.49-2.52-5.57-4.13Z"/>
          <path id="Path_4307" data-name="Path 4307" class="cls-3" d="m832.97,866.77c9.89,5.39,26.43,33.62,7.73,25.53-10.61,18.7-14.38-15.82-11.15-24.81,1.44,1.44,1.98,4.85,3.95,6.11,1.26-1.8-.72-5.03-.54-6.83Z"/>
          <path id="Path_4308" data-name="Path 4308" class="cls-3" d="m825.78,868.39c3.42,10.97-4.14,42.43-12.05,23.91-20.5,6.29.72-21.21,9.35-25.71,0,2.16-2.16,4.85-1.26,7.19,1.62-.54,2.52-4.32,3.96-5.39Z"/>
          <path id="Path_4309" data-name="Path 4309" class="cls-3" d="m819.85,864.08c-5.21,10.07-33.26,26.61-25.53,8.27-18.7-10.25,15.82-14.38,24.81-11.33-1.44,1.44-4.85,1.98-6.11,4.14,1.8.54,5.21-1.44,6.83-1.08Z"/>
          <path id="Path_4310" data-name="Path 4310" class="cls-3" d="m819.31,856.7c-10.97,3.24-42.43-5.21-23.55-12.58-5.75-20.68,21.21,1.26,25.53,9.89-2.16,0-4.85-2.16-7.19-1.44.54,1.44,4.32,2.52,5.21,4.13Z"/>
          <path id="Path_4311" data-name="Path 4311" class="cls-3" d="m831.53,853.65c2.78,1.76,3.72,5.37,2.16,8.27-1.64,2.81-5.25,3.75-8.06,2.11-.07-.04-.14-.09-.21-.13-2.82-1.75-3.7-5.44-1.98-8.27,1.67-2.78,5.28-3.67,8.06-2,.01,0,.02.01.03.02Z"/>
          <g id="Group_769" data-name="Group 769">
            <path id="Path_4312" data-name="Path 4312" class="cls-3" d="m1024.81,637.72c-8.27-7.91-16.54-39.37-.9-26.79,15.1-15.28,9.53,19.06,4.14,26.97-1.08-1.8-.54-5.21-2.34-6.83-1.26,1.44-.18,5.21-.9,6.65Z"/>
            <path id="Path_4313" data-name="Path 4313" class="cls-3" d="m1032,638.62c-.36-11.33,15.64-39.55,18.16-19.78,21.4-.54-6.65,20.32-16,22.11.54-1.98,3.24-4.14,3.24-6.47-2.16.18-3.77,3.42-5.4,4.13Z"/>
            <path id="Path_4314" data-name="Path 4314" class="cls-3" d="m1035.78,644.37c7.91-8.27,39.37-16.36,26.79-.72,15.28,15.28-19.06,9.53-27.15,3.95,1.8-1.08,5.21-.54,7.01-2.34-1.62-1.26-5.21-.18-6.65-.9Z"/>
            <path id="Path_4315" data-name="Path 4315" class="cls-3" d="m1034.88,650.84c11.51-.18,39.19,16.72,19.42,18.7-.18,21.58-20.14-7.01-21.76-16.54,1.98.54,4.14,3.42,6.47,3.42-.36-1.8-3.59-3.6-4.13-5.57Z"/>
            <path id="Path_4316" data-name="Path 4316" class="cls-3" d="m1029.48,655.34c7.91,8.09,15.82,39.55.36,26.61-15.46,15.1-9.35-19.24-3.78-26.97,1.08,1.8.54,5.21,2.16,7.01,1.44-1.26.54-4.86,1.26-6.65Z"/>
            <path id="Path_4317" data-name="Path 4317" class="cls-3" d="m1022.11,654.98c.18,11.51-16,39.55-18.34,19.42-21.4.36,6.65-20.32,16.18-22.11-.54,1.98-3.42,4.14-3.24,6.47,1.8.18,3.6-3.24,5.39-3.77Z"/>
            <path id="Path_4318" data-name="Path 4318" class="cls-3" d="m1017.62,649.04c-7.91,8.27-39.37,16.18-26.79.72-15.1-15.28,19.24-9.35,27.15-3.95-1.8,1.08-5.21.54-7.01,2.34,1.44,1.08,5.22.18,6.65.9Z"/>
            <path id="Path_4319" data-name="Path 4319" class="cls-3" d="m1019.05,641.85c-11.33,0-39.19-17.08-19.06-18.88.36-21.4,20.14,7.19,21.76,16.72-1.98-.54-4.14-3.42-6.47-3.42.18,1.8,3.42,3.96,3.78,5.57Z"/>
            <path id="Path_4320" data-name="Path 4320" class="cls-3" d="m1031.64,642.39c2.23,2.43,2.08,6.21-.35,8.44,0,0,0,0,0,0-2.48,2.18-6.27,1.94-8.45-.54s-1.94-6.27.54-8.45c2.45-2.09,6.12-1.85,8.27.54Z"/>
          </g>
          <g id="Group_770" data-name="Group 770">
            <path id="Path_4321" data-name="Path 4321" class="cls-3" d="m398.42,235.71c-2.16,1.44-2.16,4.85-3.42,6.47-4.13-8.63-4.68-43.51,8.09-26.07,17.26-10.07,4.49,19.78-4.85,26.43-.54-1.62,1.08-5.21.18-6.83Z"/>
            <path id="Path_4322" data-name="Path 4322" class="cls-3" d="m386.37,237.5c-.36,2.34,1.98,4.85,2.34,7.01-8.99-3.24-33.8-27.87-12.59-24.27,5.39-19.24,17.08,10.97,15.1,22.11-1.8-.9-2.87-4.31-4.85-4.85Z"/>
            <path id="Path_4323" data-name="Path 4323" class="cls-3" d="m379.53,247.39c1.62,2.16,5.03,1.98,6.65,3.24-8.81,4.49-43.51,5.03-26.25-7.73-10.07-17.26,19.78-4.68,26.43,4.49-1.61.72-5.03-.9-6.83,0Z"/>
            <path id="Path_4324" data-name="Path 4324" class="cls-3" d="m381.52,259.08c2.34.36,4.85-2.16,6.83-2.52-3.06,9.17-26.79,34.52-23.91,13.12-19.42-4.68,10.61-17.44,21.93-15.64-.9,1.8-4.32,3.24-4.85,5.03Z"/>
            <path id="Path_4325" data-name="Path 4325" class="cls-3" d="m391.4,266.09c1.98-1.62,1.8-5.03,3.06-6.65,4.32,8.45,5.39,43.33-7.55,26.25-17.26,10.61-4.85-19.6,4.13-26.43.54,1.98-.9,5.39.36,6.83Z"/>
            <path id="Path_4326" data-name="Path 4326" class="cls-3" d="m403.09,264.65c.54-2.34-1.98-4.85-2.34-7.01,9.17,3.24,33.98,27.51,12.76,24.09-5.21,19.42-17.08-10.61-15.28-21.93,1.8,1.08,3.24,4.67,4.85,4.85Z"/>
            <path id="Path_4327" data-name="Path 4327" class="cls-3" d="m410.46,254.94c-1.62-2.16-5.03-1.98-6.65-3.24,8.63-4.13,43.33-5.03,26.25,7.73,10.25,17.08-19.78,4.68-26.43-4.49,1.62-.54,5.21.9,6.83,0Z"/>
            <path id="Path_4328" data-name="Path 4328" class="cls-3" d="m407.95,242.54c-2.34-.36-4.85,2.16-6.83,2.52,3.06-9.17,26.61-34.7,23.91-13.3,19.6,4.68-10.25,17.44-21.57,15.82.36-1.62,3.96-3.24,4.49-5.04Z"/>
            <path id="Path_4329" data-name="Path 4329" class="cls-3" d="m398.96,247.03c2.05,2.6,1.6,6.38-1,8.43-2.48,1.95-6.05,1.65-8.17-.69-2-2.61-1.6-6.32.9-8.45,2.52-1.98,6.47-1.8,8.27.72Z"/>
          </g>
          <g id="Group_771" data-name="Group 771">
            <path id="Path_4330" data-name="Path 4330" class="cls-3" d="m548.72,46.92c-1.08.72-1.08,2.52-1.8,3.42-2.34-4.67-2.52-23.37,4.32-14.02,9.35-5.39,2.34,10.61-2.52,14.2-.54-.71.36-2.69,0-3.59Z"/>
            <path id="Path_4331" data-name="Path 4331" class="cls-3" d="m542.07,47.82c-.18,1.26,1.08,2.52,1.26,3.78-4.85-1.8-18.16-14.92-6.83-12.94,2.88-10.43,9.17,5.93,8.09,11.87-.72-.54-1.44-2.34-2.52-2.7Z"/>
            <path id="Path_4332" data-name="Path 4332" class="cls-3" d="m538.47,53.22c.9,1.08,2.7,1.08,3.6,1.8-4.67,2.34-23.37,2.7-14.02-4.13-5.39-9.35,10.61-2.52,14.2,2.52-.9.18-2.7-.72-3.78-.18Z"/>
            <path id="Path_4333" data-name="Path 4333" class="cls-3" d="m539.55,59.51c1.26.18,2.52-1.08,3.78-1.26-1.62,4.85-14.38,18.52-12.77,7.01-10.43-2.52,5.57-9.35,11.69-8.45-.54.9-2.34,1.62-2.7,2.7Z"/>
            <path id="Path_4334" data-name="Path 4334" class="cls-3" d="m544.95,63.29c1.08-.9,1.08-2.7,1.62-3.6,2.34,4.49,2.88,23.19-4.14,14.02-9.35,5.57-2.7-10.43,2.16-14.2.36,1.08-.36,2.88.36,3.78Z"/>
            <path id="Path_4335" data-name="Path 4335" class="cls-3" d="m551.24,62.57c.36-1.26-1.08-2.52-1.26-3.78,4.85,1.62,18.16,14.74,6.83,12.94-2.7,10.43-9.17-5.75-8.09-11.69.72.36,1.44,2.34,2.52,2.52Z"/>
            <path id="Path_4336" data-name="Path 4336" class="cls-3" d="m555.19,57.17c-.9-1.08-2.7-1.08-3.6-1.8,4.67-2.34,23.37-2.7,14.02,4.14,5.57,9.17-10.61,2.52-14.2-2.52.9,0,2.88.72,3.78.18Z"/>
            <path id="Path_4337" data-name="Path 4337" class="cls-3" d="m553.76,50.52c-1.26-.18-2.52,1.08-3.78,1.26,1.62-4.85,14.38-18.52,12.77-7.19,10.61,2.52-5.57,9.35-11.69,8.45.54-.72,2.52-1.44,2.7-2.52Z"/>
            <path id="Path_4338" data-name="Path 4338" class="cls-3" d="m548.9,53.04c1.19,1.3,1.1,3.32-.2,4.51-1.3,1.19-3.32,1.1-4.51-.2s-1.1-3.32.2-4.51c.06-.06.13-.11.19-.16,1.08-1.11,2.86-1.13,3.97-.05.13.12.24.26.34.41Z"/>
          </g>
          <g id="Group_772" data-name="Group 772">
            <path id="Path_4339" data-name="Path 4339" class="cls-3" d="m610.39,5.93c-.54.36-.54,1.44-.9,1.8-1.26-2.52-1.44-12.77,2.34-7.55,5.03-2.88,1.26,5.75-1.44,7.73-.18-.54.18-1.62,0-1.98Z"/>
            <path id="Path_4340" data-name="Path 4340" class="cls-3" d="m606.79,6.29c.13.69.37,1.36.72,1.98-2.7-.9-9.89-8.09-3.6-7.01,1.62-5.57,5.03,3.24,4.32,6.47-.54-.18-.89-1.26-1.43-1.44Z"/>
            <path id="Path_4341" data-name="Path 4341" class="cls-3" d="m604.82,9.17c.54.54,1.44.54,1.98.9-2.52,1.26-12.77,1.44-7.73-2.34-2.88-5.03,5.75-1.44,7.73,1.26-.36.54-1.44,0-1.98.18Z"/>
            <path id="Path_4342" data-name="Path 4342" class="cls-3" d="m605.36,12.59c.72,0,1.44-.72,1.98-.72-.9,2.7-7.91,10.07-7.01,3.78-5.75-1.44,3.06-5.03,6.47-4.49-.18.54-1.26.9-1.44,1.44Z"/>
            <path id="Path_4343" data-name="Path 4343" class="cls-3" d="m608.23,14.74c.54-.54.54-1.44.9-1.98,1.26,2.52,1.62,12.59-2.16,7.73-5.03,3.06-1.44-5.75,1.26-7.73.18.54-.36,1.44,0,1.98Z"/>
            <path id="Path_4344" data-name="Path 4344" class="cls-3" d="m611.65,14.38c.18-.72-.54-1.44-.72-1.98,2.7.9,9.89,8.09,3.78,7.01-1.44,5.75-5.03-3.06-4.49-6.47.54.18,1.08,1.26,1.44,1.44Z"/>
            <path id="Path_4345" data-name="Path 4345" class="cls-3" d="m613.81,11.51c-.54-.54-1.44-.54-1.98-.9,2.52-1.26,12.58-1.44,7.73,2.34,3.06,5.03-5.75,1.44-7.73-1.26.54-.36,1.62,0,1.98-.18Z"/>
            <path id="Path_4346" data-name="Path 4346" class="cls-3" d="m613.09,7.91c-.72,0-1.44.72-1.98.72.9-2.7,7.73-10.07,7.01-3.95,5.75,1.44-3.06,5.03-6.29,4.68.18-.54,1.26-1.08,1.26-1.44Z"/>
            <path id="Path_4347" data-name="Path 4347" class="cls-3" d="m610.57,9.17c.65.75.56,1.87-.18,2.52-.75.65-1.87.56-2.52-.18h0c-.6-.78-.45-1.89.33-2.49.01,0,.02-.02.03-.03.6-.6,1.58-.6,2.18,0,.06.06.11.12.16.18Z"/>
          </g>
          <g id="Group_773" data-name="Group 773">
            <path id="Path_4348" data-name="Path 4348" class="cls-3" d="m649.05,903.09c-.72.36-.54,1.44-.9,1.8-1.26-2.52-1.44-12.77,2.34-7.55,5.03-2.88,1.26,5.75-1.44,7.73-.18-.36.36-1.44,0-1.98Z"/>
            <path id="Path_4349" data-name="Path 4349" class="cls-3" d="m645.63,903.63c.13.69.37,1.36.72,1.98-2.7-.9-9.89-8.09-3.6-7.01,1.62-5.57,5.03,3.24,4.49,6.47-.71-.18-1.07-1.26-1.61-1.44Z"/>
            <path id="Path_4350" data-name="Path 4350" class="cls-3" d="m643.65,906.51c.54.54,1.44.54,1.98.9-2.52,1.26-12.77,1.44-7.73-2.34-2.88-5.03,5.75-1.44,7.73,1.26-.54.36-1.44,0-1.98.18Z"/>
            <path id="Path_4351" data-name="Path 4351" class="cls-3" d="m644.19,909.92c.72,0,1.44-.72,1.98-.72-.9,2.7-7.91,10.07-7.01,3.78-5.75-1.44,3.06-5.03,6.47-4.67-.36.72-1.26,1.08-1.44,1.62Z"/>
            <path id="Path_4352" data-name="Path 4352" class="cls-3" d="m647.07,912.08c.54-.54.54-1.44.9-1.98,1.26,2.52,1.62,12.76-2.16,7.73-5.03,3.06-1.44-5.75,1.26-7.73,0,.54-.36,1.44,0,1.98Z"/>
            <path id="Path_4353" data-name="Path 4353" class="cls-3" d="m650.48,911.54c.18-.72-.54-1.44-.72-1.98,2.7.9,9.89,8.09,3.78,7.01-1.44,5.75-5.03-3.06-4.49-6.47.54.36.9,1.44,1.44,1.44Z"/>
            <path id="Path_4354" data-name="Path 4354" class="cls-3" d="m652.64,908.66c-.54-.54-1.44-.54-1.98-.9,2.52-1.26,12.77-1.44,7.73,2.34,3.06,5.03-5.75,1.44-7.73-1.26.54-.18,1.44.18,1.98-.18Z"/>
            <path id="Path_4355" data-name="Path 4355" class="cls-3" d="m651.92,905.07c-.72,0-1.44.72-1.98.72.9-2.7,7.73-10.07,7.01-3.95,5.75,1.44-3.06,5.03-6.29,4.67,0-.36,1.08-.9,1.26-1.44Z"/>
            <path id="Path_4356" data-name="Path 4356" class="cls-3" d="m649.23,906.33c.65.75.56,1.87-.18,2.52-.75.65-1.87.56-2.52-.18h0c-.6-.78-.45-1.89.33-2.49.01,0,.02-.02.03-.03.7-.58,1.74-.5,2.34.18Z"/>
          </g>
          <path id="Path_4357" data-name="Path 4357" class="cls-3" d="m120.64,886.01c2.16,5.03,7.91,7.73,12.94,5.57s7.73-7.91,5.57-12.95-7.91-7.73-12.94-5.57c-5.11,2.02-7.61,7.79-5.59,12.89,0,.02.01.03.02.05Z"/>
          <path id="Path_4358" data-name="Path 4358" class="cls-3" d="m102.84,878.82c1.74,4.22,6.57,6.23,10.79,4.5s6.23-6.57,4.5-10.79-6.57-6.23-10.79-4.5c0,0,0,0,0,0-4.31,1.98-6.47,6.65-4.49,10.79Z"/>
          <path id="Path_4359" data-name="Path 4359" class="cls-3" d="m86.12,870.19c1.34,3.43,5.2,5.12,8.63,3.78s5.12-5.2,3.78-8.63c-1.34-3.43-5.2-5.12-8.63-3.78-3.4,1.27-5.12,5.05-3.85,8.45.02.06.05.12.07.18Z"/>
          <path id="Path_4360" data-name="Path 4360" class="cls-3" d="m74.61,856.16c1.14,2.83,4.36,4.2,7.19,3.06s4.2-4.36,3.06-7.19h0c-1.22-2.75-4.36-4.09-7.19-3.06-2.69,1.28-4,4.37-3.06,7.19Z"/>
          <path id="Path_4361" data-name="Path 4361" class="cls-3" d="m73.89,828.3c.93,2.27,3.53,3.35,5.8,2.41,2.21-.91,3.3-3.41,2.47-5.65-.99-2.19-3.47-3.27-5.75-2.52-2.22.96-3.32,3.47-2.52,5.75Z"/>
          <path id="Path_4362" data-name="Path 4362" class="cls-3" d="m71.38,839.98c.74,1.74,2.76,2.54,4.49,1.8,1.74-.74,2.54-2.76,1.8-4.49-.74-1.74-2.76-2.54-4.49-1.8-1.7.78-2.49,2.76-1.8,4.49Z"/>
          <g id="Group_775" data-name="Group 775">
            <g id="Group_774" data-name="Group 774">
              <path id="Path_4363" data-name="Path 4363" class="cls-1" d="m398.42,576.41l.18-10.07c-1.44,1.44-2.52,3.06-3.78,4.49l3.6,5.57Z"/>
              <path id="Path_4364" data-name="Path 4364" class="cls-1" d="m200.83,902.55c-63.83,38.83-182.49-36.14-133.76-97.45,3.42,0,8.99.72,11.69-2.16-2.52-4.85-.9-8.81,1.8-12.59,12.23-12.23,22.47-10.61,30.92,2.7-4.32,11.15,2.52,13.3.18,19.78-11.87,6.65-22.29.36-17.44-14.74-4.85,6.29-6.11,13.48-1.26,18.88,12.94,14.02,31.28-4.32,27.33-17.26-11.33-32.54-51.24-29.84-64.36,14.02-19.42,78.39,84.86,128.01,147.43,91.87,126.57-73.53,118.12-234.45,185-326.14l-2.52-3.95c-63.1,90.43-59.15,249.9-185,327.04Z"/>
              <path id="Path_4365" data-name="Path 4365" class="cls-1" d="m503.23,514.2c20.5-2.7,43.69-3.06,70.12-.54l-.72-1.26c-26.07-3.6-48.9-4.32-69.22-2.34-3.78.36-10.25,1.08-10.25,1.08-8.37,1.14-16.66,2.82-24.81,5.03-3.24,1.08-9.53,2.88-9.53,2.88-18.72,6.32-35.88,16.55-50.34,30.02v7.37c15.32-14.48,33.51-25.57,53.4-32.54,0,0,4.67-1.8,9.17-3.06,6.83-1.98,14.02-3.78,21.76-5.21-.18.18,2.88-.54,10.43-1.44Z"/>
              <path id="Path_4366" data-name="Path 4366" class="cls-1" d="m398.78,566.34l.18-7.55c-2.36,2.58-4.58,5.28-6.65,8.09l2.52,4.14c1.26-1.62,2.52-3.06,3.96-4.68Z"/>
              <path id="Path_4367" data-name="Path 4367" class="cls-1" d="m398.78,558.97l-.18,7.55c3.06-3.42,6.29-6.83,9.53-10.07v-7.37c-3.06,3.24-6.29,6.47-9.35,9.89Z"/>
              <path id="Path_4368" data-name="Path 4368" class="cls-1" d="m392.12,567.06c-2.31,2.76-4.47,5.64-6.47,8.63l2.52,3.95c2.16-2.88,4.13-5.57,6.47-8.45l-2.52-4.13Z"/>
            </g>
            <path id="Path_4369" data-name="Path 4369" class="cls-3" d="m265.37,847.53c-15.1,26.07-18.34,55.02.36,77.13s56.1.72,26.43-10.43c9.53-5.21,14.2,0,19.06,5.57,9.17-32.9-29.49-37.58-21.4-12.05-5.57-.72-6.29-5.57-9.17-8.81.54,3.6-1.44,2.7-1.62,5.75-.9-2.34-2.52-2.16-2.7-5.39-1.98,7.01-7.19,4.85-10.43,4.14,15.46-10.25,10.07-24.81,32.36-22.65,22.29,1.98,33.44,42.61.54,54.66-33.25,12.58-74.25-40.81-33.43-87.92Z"/>
          </g>
          <path id="Path_4370" data-name="Path 4370" class="cls-3" d="m579.47,551.96c-27.69-1.44-52.14,12.05-61.49,32.54-8.99,19.78-6.29,31.1-5.75,41.89,1.26,22.29,14.02,36.86,26.43,41.89,12.23,5.03,27.87-8.09,24.45-17.44s-10.25-10.97-15.46-5.39,1.62,15.28-7.01,15.46c-8.45.18-5.75-8.63-1.44-9.35s-.36-10.43,13.12-11.33c13.3-1.08,22.29,18.52,5.03,29.31-8.63,5.39-20.5,5.03-29.31-1.26s-14.74-18.52-23.01-24.09c-3.95,2.7-17.98,8.63-22.29,4.49,11.15-8.81,10.97-25.35,7.73-31.28-4.85,5.21-17.44,1.44-24.81,1.98.54-7.73,16.18-12.77,14.02-15.64-7.01-.72-17.44-19.42-25.71-16,4.32-12.77,30.2-5.03,30.92-7.37.54-2.34,1.08-14.38-1.98-17.44,6.83-3.6,25.35,17.08,24.81,20.86-10.97,13.84-17.62,4.85-28.59,8.09,7.55.72,7.73,11.51,23.37,2.16-4.14,9.89-12.41,10.07-18.16,15.28,4.85.9,7.55,3.06,18.34-6.47,2.16,8.63-5.03,31.46-2.7,33.26,4.67-2.7,3.78-7.73,5.21-6.65,3.95,3.06,1.62,5.75,3.78,9.71,2.52-16-.9-24.27,1.62-39.73.72-3.78,1.98-14.02,8.09-22.29,19.42-25.89,48.19-25.89,60.77-25.17Z"/>
          <path id="Path_4371" data-name="Path 4371" class="cls-3" d="m893.56,511.5c3.24-1.08,5.21,0,8.63.18-2.16,5.93-5.21,3.78-7.55,5.75,6.11,4.49,15.82,3.6,19.6,10.61-1.62.9-2.7.54-4.49,1.62,5.39,3.42,7.91,7.37,5.21,12.95-3.42-7.73-4.67-3.24-8.99-6.47-.18.9.72,2.34.9,3.24-11.69-.54-12.05-9.17-15.64-15.28-1.44,3.6-.54,6.83-.18,10.43l-2.34-.72c-.36-4.32-1.08-8.99,3.06-14.56,1.44,9.35,4.85,10.25,7.55,14.02.18-2.7-3.24-4.32-3.24-7.37,4.62,3.7,9.85,6.56,15.46,8.45-5.21-4.14-10.79-5.39-13.66-10.61.54-.36,7.55,2.7,9.35,1.62-1.62-1.62-14.74-4.85-14.38-8.27s4.85-.18,6.65-3.24c-5.03.54-8.99-.72-11.15-4.14.9,3.78,3.78,4.14,1.98,5.93-1.8,1.62-7.37.18-11.15-5.03.11,2.07.94,4.04,2.34,5.57-4.67-.72-8.09-7.91-12.05-8.63,0,0,5.21,7.73,10.07,10.07-1.62,1.44-6.11,2.16-8.27,1.62,7.55,2.7,12.23-.18,18.34-.36-1.62,5.75-5.93,8.45-10.07,11.15l-3.24-1.26c3.6-1.8,7.19-3.42,9.53-6.65-6.83-1.44-16,3.24-23.55-6.29,1.62-1.62,5.39-1.08,7.01-1.98-5.39-3.78-2.88-8.81-9.35-11.69,3.06-3.06,9.35-.54,13.66,3.6.2-1.54.97-2.95,2.16-3.95,4.67,1.98,3.24,10.97,12.05,12.95-.18-4.14-3.6-7.01-1.62-11.69,6.83,1.98,2.52,6.65,7.37,8.45h0Zm-11.33,19.24c.18-.18.18-.36.36-.54-.36,0-.36.18-.9.54h.54Zm-3.06-1.26c-2.39,1.42-4.57,3.18-6.47,5.21,2.88-1.8,6.29-2.34,9.35-4.14l.36.18c-1.8,2.88-4.49,3.24-6.29,6.65,1.89-.78,3.69-1.74,5.39-2.88-1.8,5.39-8.45,10.61-7.55,16.9,2.52-7.73,6.29-10.07,9.17-16.18,0,2.52-1.08,6.47-1.26,8.81,1.26-3.95,3.78-6.47,3.78-11.33,1.44,1.62,1.26,5.75,2.34,7.55.74-2.32,1.05-4.76.9-7.19l2.34.72c.54,4.49.54,9.17-3.95,16-1.44-.9-2.16-2.34-3.24-3.6.54,6.83-8.99,7.91-9.53,15.82-5.93-5.57-5.03-13.3-1.62-19.06-1.8.36-3.06,1.44-4.85,1.8-2.88-10.25,2.52-13.48,8.09-16.54l3.05,1.26Z"/>
          <g id="Group_776" data-name="Group 776">
            <path id="Path_4372" data-name="Path 4372" class="cls-3" d="m788.02,430.78c-6.29-3.42-16.9-20.86-5.21-16,6.29-12.05,8.99,9.89,7.37,15.64-.9-.9-1.26-3.24-2.52-3.78-.72.9.54,3.05.36,4.13Z"/>
            <path id="Path_4373" data-name="Path 4373" class="cls-3" d="m792.34,429.88c-2.34-6.83,2.52-26.79,7.37-15.1,12.95-3.96-.36,13.48-5.75,16.18,0-1.26,1.26-2.88.9-4.68-.9.54-1.44,2.87-2.52,3.59Z"/>
            <path id="Path_4374" data-name="Path 4374" class="cls-3" d="m795.75,432.58c3.42-6.29,20.86-16.9,16-5.21,11.87,6.29-9.89,8.99-15.64,7.19,1.08-.9,3.24-1.26,3.78-2.52-.9-.54-3.05.72-4.13.54Z"/>
            <path id="Path_4375" data-name="Path 4375" class="cls-3" d="m796.47,436.89c7.01-2.16,26.79,3.24,14.92,7.73,3.78,13.13-13.48-.72-16-6.11,1.26,0,2.88,1.26,4.49.9-.54-1.08-2.88-1.8-3.42-2.52Z"/>
            <path id="Path_4376" data-name="Path 4376" class="cls-3" d="m794.14,440.67c6.29,3.42,16.72,21.04,5.03,16-6.47,11.87-8.99-9.89-7.01-15.82.9,1.08,1.26,3.24,2.52,3.78.54-.9-.72-2.87-.54-3.95Z"/>
            <path id="Path_4377" data-name="Path 4377" class="cls-3" d="m789.46,441.39c2.16,6.83-2.7,26.79-7.55,14.92-12.95,3.95.36-13.48,5.93-16.18,0,1.26-1.26,2.88-.9,4.68,1.08-.18,1.44-2.52,2.52-3.42Z"/>
            <path id="Path_4378" data-name="Path 4378" class="cls-3" d="m785.69,438.69c-3.42,6.29-20.86,16.9-16,5.03-11.87-6.47,9.89-8.99,15.64-7.19-1.08.9-3.24,1.26-3.78,2.52.9.72,3.05-.54,4.13-.36Z"/>
            <path id="Path_4379" data-name="Path 4379" class="cls-3" d="m785.51,434.01c-7.01,1.98-26.61-3.42-14.92-8.09-3.6-13.12,13.48.9,16,6.29-1.26,0-2.88-1.26-4.49-.9.18,1.26,2.7,1.98,3.42,2.7Z"/>
            <path id="Path_4380" data-name="Path 4380" class="cls-3" d="m793.06,432.22c1.79,1.09,2.35,3.43,1.26,5.21s-3.43,2.35-5.21,1.26c-1.79-1.09-2.35-3.43-1.26-5.21,0,0,0,0,0,0,1.1-1.77,3.42-2.33,5.21-1.26Z"/>
          </g>
          <g id="Group_777" data-name="Group 777">
            <path id="Path_4381" data-name="Path 4381" class="cls-3" d="m1325.24,859.76c-6.29-3.42-16.9-20.86-5.21-16,6.29-12.05,8.99,9.89,7.37,15.64-.9-.9-1.26-3.24-2.52-3.78-.72,1.08.54,3.24.36,4.13Z"/>
            <path id="Path_4382" data-name="Path 4382" class="cls-3" d="m1329.73,859.04c-2.34-6.83,2.52-26.79,7.37-15.1,12.95-3.95-.36,13.48-5.75,16.18,0-1.26,1.26-2.88.9-4.67-1.08.54-1.62,2.87-2.52,3.59Z"/>
            <path id="Path_4383" data-name="Path 4383" class="cls-3" d="m1332.97,861.74c3.42-6.29,20.86-16.9,16-5.21,11.87,6.29-9.89,8.99-15.64,7.19,1.08-.9,3.24-1.26,3.78-2.52-.9-.54-3.05.72-4.13.54Z"/>
            <path id="Path_4384" data-name="Path 4384" class="cls-3" d="m1333.69,865.87c7.01-2.16,26.79,3.24,14.92,7.73,3.78,13.12-13.48-.72-16-6.11,1.26,0,2.88,1.26,4.49.9-.54-.9-2.88-1.62-3.42-2.52Z"/>
            <path id="Path_4385" data-name="Path 4385" class="cls-3" d="m1331.35,869.83c6.29,3.42,16.72,21.04,5.03,16-6.47,11.87-8.99-9.89-7.01-15.82.9,1.08,1.26,3.24,2.52,3.78.54-.9-.72-3.05-.54-3.95Z"/>
            <path id="Path_4386" data-name="Path 4386" class="cls-3" d="m1326.68,870.55c2.16,6.83-2.7,26.79-7.55,14.92-12.95,3.95.36-13.48,5.93-16.18,0,1.26-1.26,2.88-.9,4.67,1.08-.18,1.44-2.52,2.52-3.42Z"/>
            <path id="Path_4387" data-name="Path 4387" class="cls-3" d="m1322.9,867.85c-3.42,6.29-20.86,16.9-16,5.03-11.87-6.47,9.89-8.99,15.64-7.19-1.08.9-3.24,1.26-3.78,2.52.9.72,3.05-.54,4.13-.36Z"/>
            <path id="Path_4388" data-name="Path 4388" class="cls-3" d="m1322.72,863.18c-7.01,1.98-26.61-3.42-14.92-8.09-3.6-13.12,13.48.9,16,6.29-1.26,0-2.88-1.26-4.49-.9.18,1.26,2.7,1.98,3.42,2.7Z"/>
            <path id="Path_4389" data-name="Path 4389" class="cls-3" d="m1330.27,861.38c1.79,1.09,2.35,3.43,1.26,5.21-1.09,1.79-3.43,2.35-5.21,1.26-1.79-1.09-2.35-3.43-1.26-5.21,0,0,0,0,0,0,1.12-1.75,3.42-2.31,5.21-1.26Z"/>
          </g>
          <g id="Group_778" data-name="Group 778">
            <path id="Path_4390" data-name="Path 4390" class="cls-3" d="m610.03,418.01c-12.23-6.47-32.9-40.27-10.25-31.1,12.23-23.01,17.62,19.06,14.02,30.02-1.8-1.8-2.34-5.93-5.21-7.19-.54,2.16,1.98,6.11,1.44,8.27Z"/>
            <path id="Path_4391" data-name="Path 4391" class="cls-3" d="m618.84,416.4c-4.32-13.12,4.67-51.6,14.38-29.31,24.81-7.91-.72,25.89-10.97,31.28,0-2.52,2.34-5.93,1.62-8.63-2.52,1.08-3.24,5.39-5.03,6.65Z"/>
            <path id="Path_4392" data-name="Path 4392" class="cls-3" d="m625.13,421.79c6.47-12.23,40.27-32.54,31.1-10.07,23.01,12.59-19.06,17.62-30.2,13.84,1.8-1.8,5.93-2.34,7.37-5.21-2.34-.54-6.11,1.98-8.27,1.44Z"/>
            <path id="Path_4393" data-name="Path 4393" class="cls-3" d="m626.57,429.7c13.3-4.13,51.6,6.11,28.95,15.1,7.19,25.17-25.89-1.26-31.1-11.87,2.52,0,5.93,2.52,8.63,1.8-.9-1.8-5.22-2.88-6.48-5.03Z"/>
            <path id="Path_4394" data-name="Path 4394" class="cls-3" d="m621.54,436.89c12.05,6.65,32,40.81,9.53,31.1-12.77,22.83-17.44-19.24-13.66-30.2,1.8,1.8,2.34,5.93,4.85,7.37,1.44-1.98-.9-5.93-.72-8.27Z"/>
            <path id="Path_4395" data-name="Path 4395" class="cls-3" d="m612.91,439.05c4.14,13.3-5.21,51.6-14.56,28.95-24.81,7.73.72-25.89,11.33-31.28,0,2.52-2.52,5.93-1.62,8.63,1.98-.36,3.06-5.03,4.85-6.29Z"/>
            <path id="Path_4396" data-name="Path 4396" class="cls-3" d="m605.72,433.66c-6.47,12.23-40.45,32.36-31.1,10.07-22.83-12.59,19.24-17.44,30.2-13.84-1.8,1.8-5.93,2.34-7.37,5.21,2.16.54,6.29-1.8,8.27-1.44Z"/>
            <path id="Path_4397" data-name="Path 4397" class="cls-3" d="m605,424.67c-13.3,3.78-51.6-6.47-28.77-15.46-7.01-25.17,25.89,1.62,31.1,12.05-2.52,0-5.93-2.52-8.63-1.8.54,2.16,5.22,3.42,6.3,5.22Z"/>
            <path id="Path_4398" data-name="Path 4398" class="cls-3" d="m619.74,421.07c3.47,2.07,4.61,6.56,2.54,10.03,0,.01-.02.03-.02.04-2.07,3.46-6.56,4.59-10.02,2.52-3.46-2.07-4.59-6.56-2.52-10.02.05-.08.09-.15.14-.23,2.11-3.35,6.51-4.39,9.89-2.34Z"/>
          </g>
          <g id="Group_779" data-name="Group 779">
            <path id="Path_4399" data-name="Path 4399" class="cls-3" d="m720.24,709.45c24.09-21.93,16.18-62.39-21.76-59.51-33.8,2.7-43.87,38.12-32.9,67.24,12.58,33.26,52.68,48.54,85.4,42.43,57.53-10.61,78.21-80.91,52.32-128.73-22.65-41.53-83.6-70.3-132.86-84.32,49.8,12.05,109.31,42.43,131.61,83.6,25.71,47.29,5.21,116.86-51.6,127.47-32.54,5.93-72.1-8.99-84.5-41.89-10.97-28.95-.9-63.83,32.54-66.7,37.39-3.42,45.66,38.65,21.75,60.41Z"/>
            <path id="Path_4400" data-name="Path 4400" class="cls-3" d="m671.16,546.92c23.01,8.81,63.47,26.43,70.3,67.06,6.11,36.68-22.83,65.62-52.5,64.18-41.71-1.98-60.59-48.36-41.89-79.29,19.78-33.08,63.29-33.08,70.3-2.88,4.85,21.04-20.5,45.13-38.12,25.53,17.8,19.6,44.77-4.49,39.91-25.53-7.01-30.2-53.58-30.74-73.18,2.34-18.52,31.28,2.16,77.85,43.69,79.11,29.49.9,57.35-25.89,51.6-61.85-6.83-40.81-47.11-59.69-70.12-68.68Z"/>
          </g>
          <g id="Group_780" data-name="Group 780">
            <path id="Path_4401" data-name="Path 4401" class="cls-3" d="m1158.57,101.94c-28.41-17.8-21.22-53.58,1.8-74.07,26.25-23.55,68.32-18.52,94.39,1.62,45.67,35.6,31.82,106.8-12.59,136.82-38.84,26.25-105.54,25.89-155.34,13.66,50.34,10.07,117.58,12.76,156.78-13.84,44.95-30.38,58.97-102.48,12.77-138.26-26.25-20.5-68.86-25.35-95.29-1.62-23.19,20.86-30.39,56.99-1.62,74.79,32.36,20.14,57.89-12.23,46.56-42.79,11.15,30.2-15.46,63.65-47.46,43.69Z"/>
            <path id="Path_4402" data-name="Path 4402" class="cls-3" d="m1181.23,151.02c21.58-29.31,9.17-65.8-17.44-78.57-37.4-17.98-77.31,13.84-75.15,50.16,2.16,38.47,43.87,59.33,64.01,35.78,14.02-16.54,1.08-50.34-23.73-40.99,24.81-9.35,36.14,23.73,22.11,40.27-19.96,23.55-58.61,3.6-60.95-34.88-2.16-36.14,35.78-68.68,73.71-51.06,27.15,12.41,39.55,51.24,17.08,81.09-24.63,33.08-68.68,30.03-93.13,27.33,24.45,2.34,68.86,3.96,93.49-29.12Z"/>
          </g>
          <g id="Group_781" data-name="Group 781">
            <path id="Path_4403" data-name="Path 4403" class="cls-3" d="m1204.78,636.64c69.22,26.61,68.86,107.51,27.51,162.17-47.1,62.21-140.78,69.4-206.22,36.5-114.53-58.08-114.71-218.99-30.39-303.49,73.35-73.53,218.81-101.04,332.43-95.47-113.81-.72-261.6,22.11-335.49,96.55-85.04,85.22-85.04,248.11,30.92,306.54,65.8,33.44,160.55,26.25,208.38-36.86,41.53-55.02,42.07-136.82-27.87-163.79-78.93-30.03-120.82,51.24-83.42,113.09-37.58-61.31,6.11-145.45,84.14-115.24Z"/>
            <path id="Path_4404" data-name="Path 4404" class="cls-3" d="m1134.84,539.01c-34.52,72.82,7.91,147.25,71.38,163.79,89.18,23.37,162.35-62.93,142.39-140.96-21.04-82.7-120.64-110.57-154.26-50.7-23.55,41.89,18.88,109.85,68.86,79.29-49.98,30.74-88.82-36.32-65.26-78.21,33.62-59.87,126.21-32.72,147.61,50.16,20.14,77.67-48.9,164.69-138.98,142.57-64.18-15.46-107.7-95.11-71.74-169.36,39.73-82.34,137-94.39,191.48-98.89-54.48,4.5-152.1,19.78-191.48,102.3Z"/>
          </g>
          <g id="Group_782" data-name="Group 782">
            <path id="Path_4405" data-name="Path 4405" class="cls-3" d="m287.31,341.6c46.03-55.55,16.36-142.21-66.16-123.88-73.36,16.54-84.5,97.45-51.42,158.04,38.12,69.22,130.89,90.26,200.83,66.7,123.16-40.99,146.71-202.08,74.97-298.81C383.13,59.15,240.2,15.1,127.47-.72c113.09,10.97,253.15,59.33,314.99,142.75,71.2,95.83,47.82,255.12-74.07,295.94-69.58,23.01-161.27,2.52-198.85-65.98-33.08-60.05-21.57-140.06,50.7-156.42,81.63-18.7,112.73,70.84,67.06,126.03Z"/>
            <path id="Path_4406" data-name="Path 4406" class="cls-3" d="m128.91,0c53.22,12.41,147.61,38.3,175.12,125.49,24.81,78.75-29.67,151.21-95.47,157.14-92.23,8.81-147.97-87.38-116.86-161.27,33.26-78.93,128.73-92.41,153.36-28.23,17.26,44.77-30.92,105.54-75.87,67.96,44.95,37.58,96.91-23.55,79.65-68.5-24.63-64.01-127.29-51.06-160.01,27.87-31.1,74.25,28.77,170.26,120.46,160.19,65.08-7.37,117.94-74.79,94.39-151.74C276.7,41.53,182.31,12.41,128.91,0Z"/>
          </g>
          <g id="Group_786" data-name="Group 786">
            <g id="Group_784" data-name="Group 784">
              <path id="Path_4407" data-name="Path 4407" class="cls-3" d="m682.85,287.31c-8.81-12.94-25.89-35.6-52.32-33.98-23.91,1.62-37.4,23.91-32.18,42.07,7.37,25.71,39.19,30.56,55.73,14.56,17.62-17.08,11.51-44.41-8.45-44.23-13.84.18-24.99,19.6-10.25,27.69-14.92-8.27-3.95-28.59,10.07-28.41,19.96-.18,27.15,28.77,9.35,46.21-16.72,16.18-48.9,10.25-55.92-15.64-4.85-18.34,7.73-39.73,30.92-41.35,26.25-2.16,44.23,20.14,53.04,33.08Z"/>
              <g id="Group_783" data-name="Group 783">
                <path id="Path_4408" data-name="Path 4408" class="cls-1" d="m632.68,227.79c20.5,14.2,38.48,38.3,50.34,59.69-10.97-21.76-29.31-45.85-50.34-59.69Z"/>
                <path id="Path_4409" data-name="Path 4409" class="cls-1" d="m574.25,280.65c6.11-11.15,18.88-15.82,28.41-12.23-9.35-3.96-21.93.9-28.41,12.23Z"/>
                <path id="Path_4410" data-name="Path 4410" class="cls-1" d="m572.99,219.35c12.07-4.81,25.37-5.62,37.94-2.34,7.92,2.34,15.39,5.98,22.11,10.79-6.47-4.5-13.64-7.91-21.21-10.07-12.9-3.26-26.51-2.32-38.83,2.7-3.89,1.64-7.62,3.62-11.15,5.93-13.66,9.17-23.01,24.09-22.11,42.61.72,10.79,4.67,22.11,12.05,30.74l-.18,1.62c-7.78-9.07-12.39-20.43-13.12-32.36-1.08-19.24,9.17-34.52,23.73-43.69,0-.36,4.14-3.06,10.79-5.94Z"/>
                <path id="Path_4411" data-name="Path 4411" class="cls-1" d="m615.24,285.33c-1.26-9.17-6.47-14.74-12.41-16.9,5.75,2.34,10.43,7.73,11.87,16.9,2.34,14.74-6.65,24.63-18.88,28.77,12.41-3.78,21.58-13.84,19.42-28.77Z"/>
                <path id="Path_4412" data-name="Path 4412" class="cls-1" d="m577.31,315.89c6.17.87,12.46.25,18.34-1.8-5.59,1.67-11.47,2.15-17.26,1.44-6.56-.93-12.8-3.46-18.16-7.37v.9c5.07,3.59,10.93,5.93,17.08,6.83Z"/>
                <path id="Path_4413" data-name="Path 4413" class="cls-1" d="m551.42,301.33c2.54,3.05,5.5,5.72,8.81,7.91v-.9c-3.32-2.39-6.28-5.23-8.81-8.45v1.44Z"/>
              </g>
            </g>
            <g id="Group_785" data-name="Group 785">
              <path id="Path_4414" data-name="Path 4414" class="cls-3" d="m756.74,148.69c-31.64,7.19-44.77,46.39-10.25,62.39,30.74,14.2,56.99-11.69,61.67-42.43,5.39-35.24-22.11-68.14-53.58-78.93-55.38-19.06-107.88,32-108.78,86.3-.72,47.29,38.12,102.3,74.25,138.8-37.4-34.88-74.25-90.61-73.53-137.36.9-53.76,52.86-104.28,107.7-85.58,31.1,10.79,58.43,43.33,53.04,78.21-4.67,30.56-30.74,56.1-61.13,42.07-34.34-15.65-20.85-56.1,10.61-63.47Z"/>
              <path id="Path_4415" data-name="Path 4415" class="cls-3" d="m719.7,314.27c-15.64-19.06-42.25-54.12-28.23-92.95,12.77-34.88,52.14-45.85,77.31-30.03,35.42,22.11,28.95,71.74-2.52,89.72-33.62,19.06-71.38-2.34-62.57-32,6.11-20.68,39.91-29.31,45.85-3.42-5.75-25.71-41.17-18.16-47.29,2.7-8.81,29.67,31.46,53.22,64.9,33.98,31.46-17.98,36.5-68.86.9-90.25-25.35-15.28-62.75-5.57-75.33,28.41-14.38,38.65,11.33,74.97,26.97,93.85Z"/>
            </g>
          </g>
          <path id="Path_4416" data-name="Path 4416" class="cls-3" d="m1021.57,358.86c-38.3-11.87-50.7-61.49-6.65-77.85,39.37-14.56,69.04,19.96,71.92,58.43,3.24,44.05-33.8,81.8-73.71,92.23-70.12,18.16-129.81-49.98-125.49-117.04,3.6-58.25,56.99-122.08,104.82-163.61-49.45,39.19-100.32,104.28-103.92,161.99-4.14,66.34,55.02,133.76,124.24,115.79,39.37-10.25,76.23-47.82,72.99-91.15-2.7-37.94-32.36-72.1-71.38-57.71-43.51,16-30.75,67.24,7.19,78.93Z"/>
          <path id="Path_4417" data-name="Path 4417" class="cls-3" d="m494.07,839.62c24.09-12.77,53.94,5.21,40.63,34.16-11.87,25.89-42.79,23.55-62.57,6.47-22.83-19.6-23.01-55.55-8.81-79.65,24.99-42.43,86.3-38.3,116.5-4.14,26.25,29.67,31.28,86.12,28.23,129.09,4.85-42.61-1.98-98.35-27.87-127.83-29.85-33.8-90.61-37.94-115.25,4.14-14.02,23.91-13.66,59.51,8.63,78.93,19.6,16.9,50.16,19.06,62.03-6.47,12.95-28.77-17.79-47.29-41.53-34.7Z"/>
          <path id="Path_4418" data-name="Path 4418" class="cls-3" d="m43.69,335.49c7.73,12.94-1.26,29.66-17.62,23.37-14.56-5.75-14.2-22.83-5.39-34.16,10.07-13.12,29.84-14.2,43.51-7.19,24.09,12.4,23.55,46.2,5.76,63.82-15.46,15.28-46.21,19.78-69.94,19.24,23.55,1.44,53.94-3.95,69.4-19.06,17.62-17.44,18.16-50.88-5.57-63.11-13.48-7.01-33.08-5.75-42.97,7.19-8.63,11.33-8.99,28.05,5.39,33.8,15.82,6.29,24.99-11.15,17.44-23.91Z"/>
          <g id="Group_787" data-name="Group 787">
            <path id="Path_4419" data-name="Path 4419" class="cls-3" d="m164.51,642.75c24.09-21.93,16.18-62.39-21.75-59.51-33.8,2.7-43.87,38.12-32.9,67.24,12.58,33.26,52.68,48.54,85.4,42.43,57.53-10.61,78.21-80.91,52.32-128.73-22.65-41.53-83.6-70.3-132.87-84.32,49.8,12.05,109.31,42.43,131.61,83.6,25.71,47.29,5.21,116.86-51.6,127.47-32.54,5.93-72.1-8.99-84.5-41.89-10.97-28.95-.9-63.83,32.54-66.7,37.21-3.24,45.48,38.65,21.75,60.41Z"/>
            <path id="Path_4420" data-name="Path 4420" class="cls-3" d="m115.25,480.4c23.01,8.81,63.47,26.43,70.3,67.06,6.11,36.68-22.83,65.62-52.5,64.18-41.71-1.98-60.59-48.36-41.89-79.29,19.78-33.08,63.29-33.08,70.3-2.88,4.85,21.04-20.5,45.13-38.12,25.53,17.8,19.6,44.77-4.49,39.91-25.53-7.01-30.2-53.58-30.74-73.18,2.34-18.52,31.28,2.15,77.85,43.69,79.11,29.49.9,57.35-25.89,51.6-61.85-6.83-40.99-47.1-59.87-70.12-68.68Z"/>
          </g>
          <g id="Group_788" data-name="Group 788">
            <path id="Path_4421" data-name="Path 4421" class="cls-3" d="m63.83,571.91c-8.45-4.49-22.65-27.87-7.01-21.21,8.45-16,12.23,13.12,9.71,20.86-1.26-1.26-1.62-3.95-3.6-5.03-.53,1.08,1.08,3.78.9,5.39Z"/>
            <path id="Path_4422" data-name="Path 4422" class="cls-3" d="m69.76,570.83c-2.88-8.99,3.42-35.6,9.89-20.32,17.26-5.39-.36,17.98-7.55,21.76,0-1.62,1.62-3.95,1.08-6.11-1.62.72-2.16,3.78-3.42,4.67Z"/>
            <path id="Path_4423" data-name="Path 4423" class="cls-3" d="m74.07,574.43c4.49-8.45,27.87-22.65,21.58-7.01,15.82,8.63-13.3,12.23-20.86,9.71,1.26-1.26,3.96-1.62,5.03-3.42-1.44-.72-4.14,1.08-5.75.72Z"/>
            <path id="Path_4424" data-name="Path 4424" class="cls-3" d="m74.97,580c9.35-2.7,35.6,4.14,19.96,10.61,5.03,17.26-17.98-.9-21.58-8.27,1.62,0,3.96,1.62,6.11,1.26-.54-1.62-3.41-2.34-4.49-3.6Z"/>
            <path id="Path_4425" data-name="Path 4425" class="cls-3" d="m71.92,584.86c8.45,4.67,22.11,28.23,6.47,21.58-8.81,15.82-12.05-13.3-9.35-21.04,1.26,1.26,1.44,4.14,3.42,5.03.9-1.26-.9-3.96-.54-5.57Z"/>
            <path id="Path_4426" data-name="Path 4426" class="cls-3" d="m65.8,586.12c2.88,8.99-3.6,35.6-10.07,19.96-17.26,5.21.72-17.98,7.73-21.58,0,1.62-1.62,3.95-1.08,6.11,1.44-.18,2.16-3.41,3.42-4.49Z"/>
            <path id="Path_4427" data-name="Path 4427" class="cls-3" d="m60.95,582.52c-4.49,8.45-28.05,22.29-21.58,7.01-15.82-8.63,13.3-12.05,20.86-9.53-1.26,1.26-3.96,1.62-5.03,3.42,1.44.72,4.14-1.07,5.75-.9Z"/>
            <path id="Path_4428" data-name="Path 4428" class="cls-3" d="m60.23,576.23c-9.35,2.7-35.6-4.49-19.78-10.61-4.85-17.44,17.98,1.08,21.58,8.45-1.62,0-3.95-1.98-6.11-1.26.36,1.62,3.42,2.16,4.31,3.42Z"/>
            <path id="Path_4429" data-name="Path 4429" class="cls-3" d="m70.66,573.71c2.38,1.49,3.11,4.63,1.62,7.01s-4.63,3.11-7.01,1.62c-2.38-1.49-3.11-4.63-1.62-7.01,1.62-2.19,4.59-2.87,7.01-1.62Z"/>
          </g>
          <path id="Path_4430" data-name="Path 4430" class="cls-3" d="m892.48,35.96c7.55,7.01,10.79,16.9,12.23,20.32,5.39,14.56,3.6,23.37,8.99,38.65,1.26-4.14-1.44-6.65,1.8-10.25,1.08-1.26,1.26,3.96,6.29,5.57,1.98-2.16-9.35-23.37-8.81-32.18,12.23,7.37,14.74,4.67,19.24,2.88-6.65-4.14-14.74-2.7-20.68-11.69,17.26,6.11,15.28-4.31,22.65-6.47-11.51-1.26-16.18,8.81-29.66-2.7-1.08-3.6,13.12-27.33,20.5-24.99-2.52,3.6.36,15.28,1.26,17.44,1.08,2.16,25.17-10.07,31.64,1.44-8.63-1.8-15.46,18.52-22.29,20.5-1.44,3.24,14.74,5.21,16.72,12.76-7.37.72-19.06,6.83-24.81,2.7-1.98,6.29.9,22.65,13.48,29.13-3.6,4.68-18.52,1.62-22.83-.36-7.01,7.01-10.61,19.96-18.16,28.05-7.73,7.73-19.06,10.43-28.59,6.65-19.06-7.37-13.84-28.41-.54-29.85,13.3-1.62,10.61,8.81,14.92,8.81s8.81,8.09.36,9.53c-8.45,1.62-3.6-9.35-9.71-13.84s-12.41-1.62-14.02,8.27,16.18,19.78,27.15,12.58c11.15-7.37,21.04-23.91,18.16-46.21-1.44-10.61-.9-22.29-13.48-40.09-12.95-18.34-39.55-27.15-66.52-20.5,12.58-2.7,40.8-8.09,64.72,13.84Z"/>
        </g>
      </g>
    </g>
  </g>
</svg>