<?xml version="1.0" encoding="UTF-8"?>
<svg id="Layer_2" data-name="Layer 2" xmlns="http://www.w3.org/2000/svg" viewBox="0 0 600.03 111.08">
  <defs>
    <style>
      .cls-1 {
        fill: none;
      }

      .cls-1, .cls-2 {
        stroke-width: 0px;
      }

      .cls-2 {
        fill: #fff;
      }
    </style>
  </defs>
  <g id="Layer_2-2" data-name="Layer 2">
    <path class="cls-2" d="m22.77,92.76c-13.84,0-22.77-9.63-22.77-25.78s8.93-25.69,22.97-25.69c9.63,0,16.85,4.63,19.66,11.99v-10.95h3.11v46.37c0,5.19-.2,9.63-3.31,13.88-4.01,5.57-11.14,8.5-20.87,8.5-11.94,0-19.36-5.86-19.46-14.45h3.01c.4,7.27,6.62,11.81,17.26,11.81,8.63,0,14.65-2.74,17.96-8.31,2.31-3.87,2.31-8.5,2.31-14.26v-5.01c-3.41,7.56-10.53,11.9-19.86,11.9h0Zm.2-48.83c-11.94,0-19.76,8.5-19.76,23.04s7.83,23.05,19.76,23.05,19.66-8.5,19.66-23.05-7.73-23.04-19.66-23.04Z"/>
    <path class="cls-2" d="m59.69,42.33h3.21v8.78c2.61-6.52,7.93-9.82,15.55-9.82v2.93c-12.14.47-15.55,7.84-15.55,23.33v23.8h-3.21v-49.02Z"/>
    <path class="cls-2" d="m125.91,91.91c-4.92,0-6.82-2.74-6.82-8.88-4.11,6.04-11.54,9.54-20.97,9.54s-15.55-5.57-15.55-13.79c0-9.26,6.72-12.94,20.77-14.83,10.63-1.42,15.75-.85,15.75-5.67v-4.15c0-6.61-4.92-10.3-14.05-10.3-10.53,0-16.65,4.53-17.16,12.18h-3.01c.4-9.07,7.83-14.83,19.86-14.83,7.32,0,12.54,1.98,15.25,5.67,2.11,2.83,2.21,6.04,2.21,10.11v23.89c0,6.04.6,8.5,4.61,8.5.6,0,1.2-.1,1.91-.19v2.46c-1.2.09-2.11.28-2.81.28h.01Zm-20.27-25.69c-13.34,1.61-19.76,4.34-19.76,12.09,0,7.18,4.72,11.33,13.14,11.33,5.82,0,11.24-1.89,14.85-4.82,4.51-3.68,5.22-7.65,5.22-14.26v-7.27c-1.4,1.79-5.92,2.08-13.44,2.93h0Z"/>
    <path class="cls-2" d="m138.65,110.99c-1.3,0-2.51-.1-3.61-.57v-2.83c1.4.38,2.61.57,3.71.57,3.31,0,5.22-1.79,6.82-5.67l4.41-10.77-19.36-49.39h3.11l17.96,45.52,17.96-45.52h3.41l-22.67,56.48c-3.31,8.22-6.02,12.18-11.74,12.18Z"/>
    <path class="cls-2" d="m198.64,89.83c9.33,0,15.35-4.44,15.35-11.14,0-4.91-3.31-7.65-10.33-9.44-8.43-2.08-14.95-3.4-19.16-6.52-2.71-1.98-4.21-5.01-4.21-8.5,0-7.37,6.92-12.94,17.86-12.94,9.93,0,16.65,5.38,17.56,14.07h-3.11c-1.1-7.46-6.32-11.43-14.85-11.43s-14.15,4.25-14.15,9.91c0,7.46,6.32,8.79,16.96,11.43,11.24,2.74,16.75,5.57,16.75,13.51s-7.62,13.88-18.56,13.88c-11.54,0-18.86-5.85-19.96-15.87h3.21c1.71,8.59,7.42,13.03,16.65,13.03h-.01Z"/>
    <path class="cls-2" d="m229.04,23.53h3.21v26.82c3.21-5.86,9.33-9.07,17.56-9.07,12.04,0,17.86,5.76,17.86,17.57v32.49h-3.21v-31.54c0-10.86-4.01-15.77-14.55-15.77-5.82,0-10.33,1.6-13.44,4.91-4.01,4.25-4.21,9.35-4.21,16.15v26.25h-3.21V23.53h0Z"/>
    <path class="cls-2" d="m441.72,82.28c-6.12,7.18-13.75,10.96-21.67,10.96-13.34,0-22.17-8.5-22.17-20.12,0-8.97,6.02-16.15,17.96-21.16-5.42-6.33-8.63-11.05-8.63-15.96,0-7.37,5.82-12.56,14.35-12.56s13.84,5.1,13.84,12.75c0,7.18-4.82,12.66-14.55,16.81l20.57,24.08c2.51-4.63,3.91-10.11,3.91-16.34h3.11c-.1,7.46-1.7,13.79-4.82,18.79l10.13,11.8h-4.11l-7.93-9.07v.02Zm-23.78-27.86c-11.04,3.68-16.76,10.2-16.76,18.61,0,9.82,8.03,17.38,17.96,17.38,8.03,0,15.35-3.78,20.47-10.77l-21.67-25.22h0Zm14.35-18.23c0-5.95-4.72-10.11-11.14-10.11-6.02,0-10.63,4.25-10.63,9.44,0,4.82,2.91,9.54,8.43,15.21,9.03-3.68,13.34-8.22,13.34-14.54h0Z"/>
    <path class="cls-2" d="m523.69,92.67c-13.34,0-22.07-9.63-22.07-25.69s8.73-25.69,22.07-25.69,21.87,8.78,21.87,24.08v1.79h-40.63v.75c0,13.6,7.93,22.1,18.76,22.1,8.53,0,15.35-4.91,17.76-13.03h3.11c-2.31,9.54-10.53,15.68-20.87,15.68h0Zm18.46-28.24c0-12.75-7.52-20.49-17.86-20.49-10.94,0-18.46,7.65-19.26,20.49h37.12Z"/>
    <path class="cls-2" d="m577.06,41.29c14.05,0,22.97,9.63,22.97,25.69s-8.93,25.69-22.97,25.69-22.87-9.63-22.87-25.69,8.83-25.69,22.87-25.69Zm0,48.73c11.94,0,19.77-8.5,19.77-23.05s-7.83-23.04-19.77-23.04-19.66,8.5-19.66,23.04,7.72,23.05,19.66,23.05Z"/>
    <path class="cls-2" d="m391.06,42.33h0s-11.19,32.93-11.19,32.93h0s-.4,1.18-.4,1.18l-5.06,14.9h-3.21l-4.38-15.14h-.01l-.46-1.58h0s-7.8-26.99-7.8-26.99l-5.06,18.1v.02s-.12.4-.12.4l-3.76,13.43h.01l-.59,2.1h-.01s-2.71,9.67-2.71,9.67h-3.21l-1.53-4.54-.43-1.3h-.01s-4.28-12.7-4.28-12.7l-.08-.23-2.33-6.88h.01s-.08-.24-.08-.24l-3.81-11.25-.08-.23h0s-3.93-11.65-3.93-11.65h3.31l4.46,13.35h0s.05.15.05.15c0,.01.01.01.01.01l2.48,7.41h0s.05.16.05.16l2.17,6.49.11.31,2.27,6.81.16.45,1.16,3.46.3.93v.02s.54,1.59.54,1.59h0s.46,1.38.46,1.38h0s.63,1.87.63,1.87l.8-2.87h.01s.6-2.16.6-2.16l4.98-17.77.07-.25h0s.01-.02.01-.02l5.97-21.32h2.91s9.22,32.13,9.22,32.13h0s.44,1.55.44,1.55h.01l3.07,10.71,3.59-10.57h0s.44-1.31.44-1.31h0s11.02-32.51,11.02-32.51h3.21Z"/>
    <line class="cls-1" x1="344.08" y1="84.85" x2="343.62" y2="83.48"/>
    <path class="cls-2" d="m496.5,42.33l-22.67,56.48c-3.31,8.21-6.02,12.18-11.74,12.18-1.3,0-2.51-.1-3.61-.57v-2.83c1.4.38,2.61.57,3.71.57,3.31,0,5.22-1.8,6.82-5.67l4.41-10.77-2.8-7.15-.13-.34-9.6-24.48-.11-.28-6.72-17.14h3.11l7.06,17.9h.01l.16.42,8.07,20.45h0s.17.44.17.44l2.49,6.31,17.96-45.52h3.41Z"/>
    <path class="cls-2" d="m322.04,89.36c-4.01,0-4.61-2.46-4.61-8.5v-24.13s-.01-.55-.01-.55c-.02-3.69-.24-6.67-2.21-9.31h0c-2.71-3.69-7.93-5.68-15.25-5.68-12.04,0-19.46,5.76-19.86,14.83h3.01c.5-7.65,6.62-12.18,17.16-12.18,9.13,0,14.05,3.68,14.05,10.3v4.15c0,.08-.01.15-.02.23-.01.27-.04.53-.08.77h0c-.24,1.25-.98,2.04-2.22,2.59,0,0,0,.01-.01.01-.27.11-.55.21-.86.31,0,0,0,.01-.01.01-2.58.8-6.74.98-12.56,1.76-14.05,1.89-20.77,5.57-20.77,14.83,0,8.22,6.22,13.79,15.55,13.79,8.61,0,15.54-2.94,19.81-8.04.08-.1.17-.19.25-.29h0c.32-.41.63-.81.91-1.23,0,.88.04,1.69.13,2.44h0c.02.21.04.4.07.6.6,4.01,2.61,5.84,6.62,5.84.59,0,1.32-.13,2.25-.23.16-.02.31-.03.48-.05h.09v-2.46c-.7.09-1.3.19-1.91.19Zm-7.73-18.8c0,4.96-.4,8.44-2.5,11.42h0c-.09.13-.18.24-.27.36-.66.86-1.46,1.7-2.45,2.51v-.02c-3.6,2.93-9.02,4.82-14.84,4.82-8.43,0-13.14-4.16-13.14-11.33,0-7.75,6.42-10.48,19.76-12.09,3.58-.41,6.47-.68,8.68-1.05h.01c.21-.05.42-.09.62-.13h.01c2.06-.39,3.45-.9,4.12-1.76v7.27Z"/>
    <polygon class="cls-2" points="314.44 85.47 314.44 85.48 314.43 85.47 314.44 85.47"/>
    <rect class="cls-1" width="600.03" height="111.08"/>
  </g>
</svg>