<?xml version="1.0" encoding="UTF-8"?>
<svg id="Layer_2" data-name="Layer 2" xmlns="http://www.w3.org/2000/svg" viewBox="0 0 600.03 183.03">
  <defs>
    <style>
      .cls-1, .cls-2 {
        fill: #fff;
        stroke-width: 0px;
      }

      .cls-2 {
        fill-rule: evenodd;
      }
    </style>
  </defs>
  <g id="Layer_1-2" data-name="Layer 1">
    <g>
      <path class="cls-2" d="m433.36,129.73c7.15-6.5,4.84-18.59-6.43-17.68-10.06.81-13.05,11.36-9.78,20.04,3.75,9.93,15.69,14.41,25.44,12.63,17.15-3.14,23.26-24.1,15.55-38.3-6.71-12.37-24.84-20.88-39.55-25.12,14.8,3.56,32.52,12.62,39.16,24.87,7.63,14.06,1.58,34.79-15.4,37.92-9.65,1.76-21.47-2.68-25.18-12.51-3.24-8.59-.28-19.04,9.68-19.84,11.15-.9,13.59,11.56,6.5,17.99Z"/>
      <path class="cls-1" d="m22.77,92.76c-13.84,0-22.77-9.63-22.77-25.78s8.93-25.69,22.97-25.69c9.63,0,16.85,4.63,19.66,11.99v-10.95h3.11v46.37c0,5.19-.2,9.63-3.31,13.88-4.01,5.57-11.14,8.5-20.87,8.5-11.94,0-19.36-5.86-19.46-14.45h3.01c.4,7.27,6.62,11.81,17.26,11.81,8.63,0,14.65-2.74,17.96-8.31,2.31-3.87,2.31-8.5,2.31-14.26v-5.01c-3.41,7.56-10.53,11.9-19.86,11.9Zm.2-48.83c-11.94,0-19.76,8.5-19.76,23.04s7.83,23.05,19.76,23.05,19.66-8.5,19.66-23.05-7.73-23.04-19.66-23.04Z"/>
      <path class="cls-1" d="m59.69,42.33h3.21v8.78c2.61-6.52,7.93-9.82,15.55-9.82v2.93c-12.14.47-15.55,7.84-15.55,23.33v23.8h-3.21v-49.02Z"/>
      <path class="cls-1" d="m125.91,91.91c-4.92,0-6.82-2.74-6.82-8.88-4.11,6.04-11.54,9.54-20.97,9.54s-15.55-5.57-15.55-13.79c0-9.26,6.72-12.94,20.77-14.83,10.63-1.42,15.75-.85,15.75-5.67v-4.15c0-6.61-4.92-10.3-14.05-10.3-10.53,0-16.65,4.53-17.16,12.18h-3.01c.4-9.07,7.83-14.83,19.86-14.83,7.32,0,12.54,1.98,15.25,5.67,2.11,2.83,2.21,6.04,2.21,10.11v23.89c0,6.04.6,8.5,4.61,8.5.6,0,1.2-.1,1.91-.19v2.46c-1.2.09-2.11.28-2.81.28Zm-20.27-25.69c-13.34,1.61-19.76,4.34-19.76,12.09,0,7.18,4.72,11.33,13.14,11.33,5.82,0,11.24-1.89,14.85-4.82,4.51-3.68,5.22-7.65,5.22-14.26v-7.27c-1.4,1.79-5.92,2.08-13.44,2.93Z"/>
      <path class="cls-1" d="m138.65,110.99c-1.3,0-2.51-.1-3.61-.57v-2.83c1.4.38,2.61.57,3.71.57,3.31,0,5.22-1.79,6.82-5.67l4.41-10.77-19.36-49.39h3.11l17.96,45.52,17.96-45.52h3.41l-22.67,56.48c-3.31,8.22-6.02,12.18-11.74,12.18Z"/>
      <path class="cls-1" d="m198.64,89.83c9.33,0,15.35-4.44,15.35-11.14,0-4.91-3.31-7.65-10.33-9.44-8.43-2.08-14.95-3.4-19.16-6.52-2.71-1.98-4.21-5.01-4.21-8.5,0-7.37,6.92-12.94,17.86-12.94,9.93,0,16.65,5.38,17.56,14.07h-3.11c-1.1-7.46-6.32-11.43-14.85-11.43s-14.15,4.25-14.15,9.91c0,7.46,6.32,8.79,16.96,11.43,11.24,2.74,16.75,5.57,16.75,13.51s-7.62,13.88-18.56,13.88c-11.54,0-18.86-5.85-19.96-15.87h3.21c1.71,8.59,7.42,13.03,16.65,13.03Z"/>
      <path class="cls-1" d="m229.04,23.53h3.21v26.82c3.21-5.86,9.33-9.07,17.56-9.07,12.04,0,17.86,5.76,17.86,17.57v32.49h-3.21v-31.54c0-10.86-4.01-15.77-14.55-15.77-5.82,0-10.33,1.6-13.44,4.91-4.01,4.25-4.21,9.35-4.21,16.15v26.25h-3.21V23.53Z"/>
      <path class="cls-1" d="m441.72,82.28c-6.12,7.18-13.75,10.96-21.67,10.96-13.34,0-22.17-8.5-22.17-20.12,0-8.97,6.02-16.15,17.96-21.16-5.42-6.33-8.63-11.05-8.63-15.96,0-7.37,5.82-12.56,14.35-12.56s13.84,5.1,13.84,12.75c0,7.18-4.82,12.66-14.55,16.81l20.57,24.08c2.51-4.63,3.91-10.11,3.91-16.34h3.11c-.1,7.46-1.7,13.79-4.82,18.79l10.13,11.8h-4.11l-7.93-9.07Zm-23.78-27.86c-11.04,3.68-16.76,10.2-16.76,18.61,0,9.82,8.03,17.38,17.96,17.38,8.03,0,15.35-3.78,20.47-10.77l-21.67-25.22Zm14.35-18.23c0-5.95-4.72-10.11-11.14-10.11-6.02,0-10.63,4.25-10.63,9.44,0,4.82,2.91,9.54,8.43,15.21,9.03-3.68,13.34-8.22,13.34-14.54Z"/>
      <path class="cls-1" d="m523.69,92.67c-13.34,0-22.07-9.63-22.07-25.69s8.73-25.69,22.07-25.69,21.87,8.78,21.87,24.08v1.79h-40.63v.75c0,13.6,7.93,22.1,18.76,22.1,8.53,0,15.35-4.91,17.76-13.03h3.11c-2.31,9.54-10.53,15.68-20.87,15.68Zm18.46-28.24c0-12.75-7.52-20.49-17.86-20.49-10.94,0-18.46,7.65-19.26,20.49h37.12Z"/>
      <path class="cls-1" d="m577.06,41.29c14.05,0,22.97,9.63,22.97,25.69s-8.93,25.69-22.97,25.69-22.87-9.63-22.87-25.69,8.83-25.69,22.87-25.69Zm0,48.73c11.94,0,19.77-8.5,19.77-23.05s-7.83-23.04-19.77-23.04-19.66,8.5-19.66,23.04,7.72,23.05,19.66,23.05Z"/>
      <g>
        <path class="cls-2" d="m377.23,80.63c-8.41,3.25-23.33,9.72-25.84,24.67-2.26,13.47,8.37,24.07,19.29,23.56,15.31-.73,22.24-17.74,15.43-29.17-7.26-12.17-23.24-12.2-25.8-1.11-1.8,7.76,7.52,16.56,14.06,9.35-6.54,7.21-16.42-1.59-14.62-9.36,2.56-11.09,19.67-11.28,26.93.89,6.81,11.44-.74,28.64-16.07,29.09-10.84.32-21.11-9.54-19-22.67,2.4-14.97,17.2-22,25.62-25.25Z"/>
        <path class="cls-2" d="m359.16,140.31c-8.84-8.03-5.98-22.96,7.94-21.84,12.43,1,16.12,14.04,12.08,24.76-4.63,12.27-19.37,17.81-31.42,15.6-21.18-3.88-28.73-29.77-19.21-47.31,8.29-15.27,30.69-25.8,48.85-31.03-18.27,4.4-40.16,15.59-48.37,30.72-9.42,17.36-1.95,42.97,19.02,46.83,11.92,2.18,26.52-3.3,31.1-15.45,4-10.62.34-23.52-11.96-24.51-13.78-1.11-16.78,14.28-8.03,22.23Z"/>
        <g>
          <path class="cls-1" d="m391.06,42.33h-3.21l-11.02,32.51c1,.12,2.01.26,3.04.43l11.19-32.93Z"/>
          <path class="cls-1" d="m344.71,86.72l-.63-1.87c-.85.63-1.69,1.28-2.51,1.96l1.53,4.54h3.21l2.71-9.67c-1.2.67-2.37,1.4-3.51,2.17l-.8,2.87Z"/>
          <g>
            <path class="cls-1" d="m324.62,65.18c-.04,4.66,3,8.39,6.64,9.01-3.63-.75-6.69-4.47-6.64-9.01Z"/>
            <path class="cls-1" d="m339.08,69.9l.11.32c2.65-4.13,1.43-8.62-1.66-11.88,2.91,3.22,4.01,7.55,1.56,11.56Z"/>
            <path class="cls-1" d="m331.26,74.19c1.82.38,3.79.01,5.58-1.37l-.08-.23c-1.78,1.46-3.72,1.91-5.51,1.6Z"/>
            <path class="cls-1" d="m337.53,58.34c-.91-1.01-1.99-1.9-3.2-2.65l.05.15c1.18.7,2.24,1.55,3.15,2.51Z"/>
            <path class="cls-1" d="m333.78,92.66c9.16-.68,19.39-4.99,26.93-10.01-7.71,4.66-17.82,9.14-26.93,10.01Z"/>
            <path class="cls-1" d="m334.33,55.69l-4.47-13.36h-3.31l3.93,11.65c.5.14.99.31,1.48.51.83.34,1.62.74,2.36,1.2Z"/>
            <path class="cls-1" d="m338.36,70.95c-.51.65-1.04,1.19-1.59,1.63l.08.23c.6-.46,1.18-1.04,1.73-1.74.22-.29.43-.57.61-.86l-.11-.32c-.22.36-.45.71-.72,1.06Z"/>
            <path class="cls-1" d="m332.25,54.77c.74.3,1.45.66,2.12,1.06l-.05-.15c-.75-.46-1.54-.87-2.36-1.2-.49-.2-.98-.37-1.48-.51l.08.24c.57.15,1.13.33,1.69.56Z"/>
          </g>
          <path class="cls-1" d="m376.38,76.15l-3.58,10.57-3.07-10.71c-.99.04-1.96.1-2.91.19l4.38,15.14h3.21l5.06-14.89c-1.05-.13-2.07-.23-3.08-.3Z"/>
          <path class="cls-1" d="m263.73,166.16c-21.26,6.49-49.98-23.93-31.38-37.97,1.01.27,2.53.9,3.5.26-.36-1.59.39-2.64,1.43-3.54,4.48-2.64,7.29-1.4,8.71,3.08-2.07,2.86-.27,4.03-1.38,5.69-3.92,1.07-6.46-1.59-3.96-5.51-1.91,1.46-2.74,3.48-1.74,5.32,2.7,5.02,9.32,1.08,9.19-2.96-.86-10.2-12.58-12.39-19.56-.7-11.43,21.17,14.99,43.09,35.69,37.34,41.92-11.86,51.33-58.86,77.35-80.36l-.44-1.3c-24.85,21.44-35.43,67.68-77.41,80.65Z"/>
          <path class="cls-1" d="m399.75,81.45l-.11-.41c-7.28-2.93-13.83-4.8-19.77-5.77l-.4,1.19c6.08.74,12.8,2.35,20.28,5Z"/>
          <path class="cls-1" d="m349.61,79.57l-.59,2.1c5.19-2.9,11.03-4.83,17.8-5.48l-.46-1.59c-6.32.52-11.82,2.28-16.75,4.97Z"/>
          <path class="cls-1" d="m376.38,76.15l.44-1.31c-2.64-.3-5.15-.43-7.55-.38l.44,1.55c2.13-.08,4.34-.03,6.66.14Z"/>
          <path class="cls-1" d="m345.51,83.85l.6-2.16c-.85.57-1.68,1.17-2.49,1.79l.46,1.37c.47-.34.95-.68,1.43-1.01Z"/>
          <path class="cls-1" d="m369.28,74.46c-.99.02-1.97.07-2.93.15l.46,1.59c.95-.09,1.92-.15,2.91-.19l-.44-1.55Z"/>
          <path class="cls-1" d="m346.12,81.69l-.6,2.16c1.14-.77,2.3-1.5,3.51-2.17l.59-2.1c-1.19.65-2.36,1.36-3.49,2.11Z"/>
          <path class="cls-1" d="m379.47,76.45l.4-1.19c-1.03-.17-2.05-.31-3.04-.43l-.44,1.31c1.01.08,2.04.18,3.08.3Z"/>
          <path class="cls-1" d="m343.63,83.48c-.85.65-1.68,1.32-2.49,2.03l.44,1.3c.82-.68,1.66-1.33,2.51-1.96l-.46-1.37Z"/>
        </g>
        <path class="cls-2" d="m252.78,161.97c.99,2.48,3.8,3.68,6.28,2.68,2.47-.99,3.68-3.8,2.68-6.27-.99-2.48-3.81-3.68-6.28-2.69-2.47,1-3.67,3.81-2.68,6.28Z"/>
        <path class="cls-2" d="m244.11,158.52c.82,2.04,3.15,3.04,5.2,2.22,2.05-.82,3.04-3.15,2.22-5.19-.82-2.05-3.15-3.04-5.2-2.22-2.05.82-3.04,3.15-2.22,5.19Z"/>
        <path class="cls-2" d="m236.07,154.3c.67,1.67,2.56,2.47,4.23,1.8,1.66-.66,2.47-2.56,1.8-4.22-.67-1.66-2.56-2.47-4.23-1.8-1.67.67-2.47,2.56-1.8,4.22Z"/>
        <path class="cls-2" d="m230.6,147.51c.54,1.35,2.07,2,3.42,1.46,1.35-.54,2-2.07,1.46-3.43-.54-1.34-2.08-2-3.43-1.46-1.35.55-2.01,2.08-1.46,3.43Z"/>
        <path class="cls-2" d="m230.21,134.05c.43,1.08,1.66,1.61,2.74,1.17,1.08-.43,1.61-1.66,1.17-2.75-.43-1.07-1.66-1.6-2.74-1.17-1.08.44-1.6,1.67-1.17,2.75Z"/>
        <path class="cls-2" d="m228.98,139.7c.33.83,1.28,1.24,2.11.9.83-.33,1.24-1.28.9-2.11-.34-.84-1.28-1.24-2.11-.91-.83.34-1.24,1.28-.9,2.12Z"/>
        <g>
          <path class="cls-1" d="m336.86,63.26l-2.48-7.42c-.67-.4-1.39-.76-2.12-1.06-.56-.23-1.12-.41-1.69-.56l3.8,11.25c.21-.25.43-.49.66-.73.58-.57,1.2-1.06,1.83-1.48Z"/>
          <path class="cls-1" d="m334.44,65.7l2.33,6.89c.55-.45,1.08-.99,1.59-1.63.27-.35.51-.7.72-1.06l-2.17-6.48c-.61.43-1.21.92-1.77,1.49-.25.25-.48.52-.7.79Z"/>
          <path class="cls-1" d="m343.94,61.28c-2.4-.12-4.86.49-7.08,1.98l.05.16c2.17-1.52,4.61-2.18,7.02-2.13Z"/>
          <g>
            <path class="cls-1" d="m341.47,77.03l-2.28-6.82c-.18.29-.39.58-.61.86-.55.7-1.13,1.28-1.73,1.74l4.28,12.69c.82-.7,1.65-1.38,2.49-2.03l-.54-1.61c-1.14-1.32-1.7-3.13-1.62-4.84Z"/>
            <path class="cls-1" d="m341.62,77.47c.07,1.21.47,2.43,1.16,3.46l-1.16-3.46Z"/>
            <path class="cls-1" d="m342.92,73.45c-.92.92-1.39,2.21-1.45,3.58l.15.43c-.09-1.52.32-3,1.31-4.02Z"/>
            <g>
              <path class="cls-1" d="m351.1,63.93l-4.98,17.76c1.13-.76,2.3-1.46,3.49-2.11l3.76-13.41c-.66-.84-1.42-1.59-2.27-2.23Z"/>
              <path class="cls-1" d="m360.06,42.33h-2.91l-5.98,21.34c.85.6,1.63,1.29,2.31,2.08l5.07-18.12,7.8,26.99c.96-.08,1.93-.13,2.93-.15l-9.22-32.13Z"/>
              <path class="cls-1" d="m355.48,70.19c2.57,8.72-4.38,16.25-10.72,12.62-.81-.47-1.48-1.12-1.99-1.88l.32.94c.41.47.88.89,1.43,1.2,6.34,3.63,13.88-4.35,11.31-13.06-.47-1.61-1.29-3.05-2.35-4.27l-.12.42c.94,1.18,1.67,2.54,2.11,4.03Z"/>
              <path class="cls-1" d="m343.94,61.28c2.59.12,5.1,1.08,7.16,2.65l.07-.26c-2.1-1.47-4.64-2.33-7.23-2.38Z"/>
              <path class="cls-1" d="m351.17,63.66l-.07.26c.84.64,1.61,1.4,2.27,2.23l.12-.42c-.68-.79-1.46-1.48-2.31-2.08Z"/>
            </g>
            <path class="cls-1" d="m341.62,77.47l-.15-.43c-.08,1.71.48,3.52,1.62,4.84l-.32-.94c-.69-1.03-1.08-2.26-1.16-3.46Z"/>
          </g>
          <path class="cls-1" d="m337.54,83.73c-6.73-4.49-7.22-12.94-3.1-18.03l-.08-.23c-4.28,5.08-3.63,14.04,3.35,18.61,8.13,5.33,17.67,1.13,22.86-1.41-5.2,2.54-14.95,6.45-23.04,1.06Z"/>
          <path class="cls-1" d="m342.92,73.45c.82-.83,2-1.34,3.56-1.33-1.59-.02-2.76.5-3.56,1.33Z"/>
          <path class="cls-1" d="m335.14,64.9c.56-.57,1.16-1.06,1.77-1.49l-.05-.16c-.63.43-1.25.91-1.83,1.48-.23.23-.45.48-.66.73l.08.23c.22-.27.45-.54.7-.79Z"/>
        </g>
        <path class="cls-2" d="m286.38,155.06c-6.3,6.4-9.35,14.53-5.56,22.3,3.78,7.76,16.15,4.3,8.41-1.08,3.12-.85,4.07,1.09,5.1,2.99,5.11-8.76-5.69-13-5.28-5-1.59-.6-1.37-2.05-2.04-3.18-.15,1.09-.62.71-.89,1.59-.06-.77-.58-.84-.38-1.75-1.1,1.87-2.47.87-3.34.42,5.18-1.84,4.7-6.38,10.98-4.14,6.28,2.23,6.55,14.75-3.9,15.79-10.45,1.04-18.36-17.41-3.1-27.93Z"/>
      </g>
      <path class="cls-2" d="m519.48,147.27c-.8,2.01-3.08,2.98-5.08,2.17-2.01-.8-2.98-3.08-2.17-5.08.81-2,3.08-2.98,5.09-2.17,2,.8,2.97,3.08,2.17,5.08Z"/>
      <path class="cls-2" d="m526.5,144.47c-.66,1.66-2.55,2.47-4.21,1.79-1.66-.66-2.46-2.54-1.8-4.2.67-1.65,2.55-2.46,4.2-1.8,1.66.67,2.46,2.55,1.8,4.21Z"/>
      <path class="cls-2" d="m533.01,141.06c-.54,1.35-2.07,2-3.42,1.46-1.34-.54-2-2.07-1.45-3.42.54-1.35,2.07-2,3.42-1.46,1.35.54,2,2.07,1.46,3.42Z"/>
      <path class="cls-2" d="m537.43,135.56c-.44,1.1-1.68,1.63-2.77,1.19-1.1-.44-1.62-1.68-1.19-2.77.44-1.09,1.68-1.63,2.77-1.19,1.09.44,1.63,1.68,1.19,2.77Z"/>
      <path class="cls-2" d="m537.75,124.66c-.35.87-1.35,1.3-2.22.95-.88-.35-1.3-1.34-.95-2.22.35-.87,1.35-1.29,2.22-.94.87.35,1.3,1.35.95,2.22Z"/>
      <path class="cls-2" d="m538.75,129.23c-.27.67-1.04,1-1.71.73-.67-.27-1-1.03-.73-1.71.27-.67,1.04-1,1.71-.73.68.27,1,1.03.73,1.71Z"/>
      <path class="cls-2" d="m432.21,83.06c4.2,2.06,11.93,5.46,18.51,1.15,5.93-3.89,6.22-11.68,2.17-15.65-5.67-5.58-14.6-2.22-16.55,4.41-2.08,7.06,3.54,13.15,8.68,10.22,3.59-2.06,3.65-8.71-1.4-8.66,5.05-.05,5.18,6.81,1.59,8.87-5.13,2.93-11.24-3.51-9.16-10.58,1.95-6.63,11.18-9.81,16.75-4.13,3.94,4.02,3.81,11.41-1.94,15.24-6.55,4.36-14.44,1.2-18.65-.86Z"/>
      <g>
        <path class="cls-1" d="m457.17,42.33h-3.11l6.72,17.14c1.17.1,2.33.36,3.45.76l-7.06-17.9Z"/>
        <path class="cls-1" d="m464.4,60.65c-1.13-.45-2.31-.76-3.51-.9l9.6,24.49c.77-.98,1.43-2.03,1.98-3.13l-8.07-20.46Z"/>
        <path class="cls-1" d="m493.09,42.33l-17.96,45.52-2.49-6.31c-.57,1.07-1.25,2.08-2.02,3.03l2.8,7.15-4.41,10.77c-1.6,3.87-3.51,5.67-6.82,5.67-1.1,0-2.31-.19-3.71-.57v2.83c1.1.47,2.31.57,3.61.57,5.72,0,8.43-3.97,11.74-12.18l22.67-56.48h-3.41Z"/>
        <path class="cls-1" d="m453.89,91.15c-7.38-.7-15.56-4.33-21.8-8.1,6.1,4.07,14.39,7.56,21.8,8.1Z"/>
        <path class="cls-1" d="m461.32,68.9c.03,3.75-2.55,6.81-5.57,7.33,3.03-.4,5.61-3.48,5.57-7.33Z"/>
        <path class="cls-1" d="m460.85,90.64c-2.15.55-4.51.69-6.96.51,2.55.24,5.01.14,7.25-.43,3.73-.95,7.06-3.2,9.48-6.14l-.13-.34c-2.41,3.07-5.81,5.43-9.64,6.41Z"/>
        <path class="cls-1" d="m450.02,73.68c1.72,2.19,3.81,2.88,5.73,2.55-1.84.25-3.85-.49-5.55-2.65-2.73-3.47-1.89-7.37.67-10.21-2.68,2.82-3.62,6.79-.85,10.31Z"/>
        <path class="cls-1" d="m471.99,66.88c2.92,4.6,2.67,9.81.48,14.22l.17.44c2.43-4.55,2.8-10.02-.25-14.83-1.84-2.9-4.82-5.29-8.16-6.48l.16.42c3.11,1.23,5.86,3.51,7.59,6.23Z"/>
        <path class="cls-1" d="m455.37,60.24c-1.75.71-3.31,1.8-4.5,3.12,1.15-1.22,2.63-2.23,4.27-2.89,1.87-.76,3.84-.96,5.75-.73l-.11-.28c-1.81-.16-3.65.06-5.41.78Z"/>
        <path class="cls-1" d="m472.47,81.1c-.55,1.1-1.21,2.15-1.98,3.13l.13.34c.78-.94,1.45-1.96,2.02-3.03l-.17-.44Z"/>
        <path class="cls-1" d="m464.23,60.23c-1.12-.4-2.28-.66-3.45-.76l.11.28c1.2.14,2.38.45,3.51.9l-.16-.42Z"/>
      </g>
      <path class="cls-2" d="m418.72,81.42c6.81,2.63,18.89,7.87,20.92,19.97,1.83,10.91-6.78,19.5-15.62,19.08-12.4-.59-18.01-14.36-12.49-23.62,5.87-9.86,18.81-9.88,20.88-.9,1.46,6.29-6.09,13.41-11.38,7.57,5.29,5.84,13.29-1.29,11.83-7.58-2.08-8.98-15.93-9.13-21.8.72-5.52,9.26.6,23.18,13.01,23.55,8.78.26,17.09-7.72,15.39-18.36-1.94-12.12-13.93-17.81-20.74-20.44Z"/>
      <path class="cls-2" d="m492.28,141.67c5.1,5.18,7.57,11.75,4.5,18.05-3.06,6.29-13.08,3.49-6.81-.88-2.52-.69-3.29.88-4.13,2.43-4.14-7.09,4.61-10.53,4.28-4.05,1.28-.49,1.11-1.66,1.64-2.58.12.88.5.57.72,1.28.04-.62.47-.69.31-1.42.89,1.51,2,.71,2.7.34-4.2-1.49-3.8-5.16-8.89-3.36-5.09,1.8-5.3,11.94,3.17,12.79,8.46.84,14.86-14.09,2.51-22.61Z"/>
      <path class="cls-2" d="m431.19,29.72c-5.5-6.17-13.52-8.44-19.74-6.13-6.09,2.26-7.89,5.21-10.01,7.59-4.45,4.98-4.83,10.68-3.32,14.35,1.51,3.67,7.53,4.22,8.79,1.52,1.26-2.7.16-4.47-2.08-4.39-2.24.08-2.92,3.56-4.71,1.78-1.79-1.78.63-3.03,1.7-2.26,1.07.77,2.11-2.23,5.12.36,3.01,2.59.76,8.62-5.14,7.19-2.95-.71-5.35-3.24-5.88-6.43-.53-3.2.82-7.05.24-9.94-1.39-.22-5.59-2.04-5.65-3.79,4.2.5,7.68-3.01,8.23-4.87-2.16.04-3.92-3.41-5.65-4.83,1.76-1.5,6.11.72,6.25-.3-1.32-1.6.46-7.8-1.98-8.8,3.6-1.76,7.41,5.33,8.05,4.93.64-.4,3.24-2.76,3.28-4.09,2.2.68,1.68,8.9.84,9.62-5.19.56-4.73-2.73-7.73-4.33,1.44,1.74-.8,4,4.44,5.37-2.94,1.2-4.71-.48-7-.65.85,1.19.92,2.23,5.2,2.53-1.4,2.28-7.73,5.49-7.61,6.37,1.56.44,2.44-.84,2.48-.32.19,1.43-.87,1.58-1.24,2.8,3.91-2.83,4.96-5.25,8.74-7.96.92-.66,3.4-2.52,6.39-2.94,9.48-1.33,15.46,4.79,17.98,7.6Z"/>
      <path class="cls-2" d="m435.97,33.86c-.84-.61-.88-1.22-1.46-2.13,1.83-.51,1.8.61,2.67.89.09-2.24-1.81-4.43-.75-6.61.5.27.59.57,1.12.83-.07-1.89.45-3.18,2.29-3.43-1.3,2.12.03,1.67-.05,3.32.28-.13.41-.55.63-.75,1.88,2.92-.18,4.54-1.06,6.43,1.1-.28,1.77-1.01,2.57-1.72l.17.69c-1,.8-2.03,1.73-4.05,1.77,1.98-1.94,1.73-2.93,2.15-4.2-.67.43-.5,1.49-1.25,2.05.13-1.92-.15-3.67-.57-5.22-.14,1.94.49,3.6-.27,5.14-.21-.06-.65-2.3-1.22-2.6-.15.71,1.3,4.44.45,4.9-.85.45-.91-1.11-1.92-1.08,1.02,1.1,1.38,2.35.89,3.44.74-.86.39-1.65,1.1-1.48.71.16,1.31,1.76.66,3.56.47-.33.81-.86.97-1.48.65,1.24-.57,3.3-.04,4.41,0,0,1.01-2.56.76-4.21.6.1,1.56,1.15,1.83,1.74-.63-2.34-2.15-2.94-3.21-4.36,1.69-.53,3.06,0,4.45.53l.25,1.01c-1.04-.55-2.09-1.17-3.25-1.21.82,1.87,3.52,3.31,2.45,6.84-.66-.12-1.22-1.12-1.69-1.36,0,1.95-1.67,2.17-1.26,4.29-1.25-.24-1.67-2.17-1.47-3.98-.28.1-.77.32-1.32.15-.32-1.48,2.14-2.66,1.12-5.15-1.02.73-1.13,2.07-2.59,2.38-.61-2.13,1.31-1.89.92-3.4h0Zm6.62-.52c-.06,0-.13,0-.2.01.08.03.15.07.23.11l-.03-.12Zm.24.95c.76.29,1.53.59,2.35.71-.94-.39-1.64-1.11-2.56-1.55l-.03-.12c.98-.04,1.55.55,2.72.35-.47-.28-1.08-.62-1.61-.84,1.64-.49,3.99.24,5.41-1.01-2.33.7-3.53.16-5.55.53.6-.42,1.75-.81,2.39-1.21-1.18.36-2.22.19-3.4,1.04.11-.62,1.19-1.24,1.44-1.85-.74.17-1.31.58-1.88,1.02l-.17-.69c.98-.86,2.16-1.72,4.59-1.74.02.5-.2.96-.31,1.38,1.56-1.32,3.44.9,5.45-.37-.35,2.39-2.36,3.53-4.39,3.66.35.37.88.51,1.23.87-2.04,2.42-3.7,1.71-5.41.81l-.25-1.01Z"/>
      <g>
        <path class="cls-2" d="m338.41,133.61c-3.02-1.57-8.02-9.83-2.5-7.57,3.01-5.64,4.33,4.65,3.44,7.37-.42-.44-.59-1.44-1.24-1.79-.24.49.38,1.46.29,1.99Z"/>
        <path class="cls-2" d="m340.51,133.23c-1.06-3.23,1.16-12.63,3.51-7.15,6.1-1.92-.16,6.34-2.7,7.67,0-.61.6-1.44.37-2.14-.51.19-.75,1.3-1.18,1.62Z"/>
        <path class="cls-2" d="m342.07,134.55c1.58-3.01,9.88-7.97,7.58-2.46,5.62,3.05-4.67,4.3-7.39,3.4.45-.42,1.45-.58,1.8-1.23-.5-.24-1.46.37-1.99.28Z"/>
        <path class="cls-2" d="m342.39,136.5c3.25-.97,12.6,1.48,7.06,3.7,1.76,6.15-6.34-.32-7.6-2.89.61.02,1.43.63,2.13.42-.18-.52-1.29-.78-1.6-1.23Z"/>
        <path class="cls-2" d="m341.25,138.25c2.98,1.63,7.83,9.99,2.35,7.62-3.12,5.58-4.24-4.73-3.3-7.43.41.45.56,1.45,1.2,1.82.24-.49-.35-1.47-.25-2Z"/>
        <path class="cls-2" d="m339.06,138.73c1.03,3.24-1.27,12.63-3.58,7.12-6.11,1.87.21-6.34,2.77-7.64-.01.61-.6,1.44-.39,2.14.52-.19.76-1.3,1.2-1.62Z"/>
        <path class="cls-2" d="m337.34,137.43c-1.6,3-9.9,7.93-7.59,2.43-5.62-3.07,4.68-4.29,7.4-3.38-.45.42-1.46.58-1.8,1.22.49.24,1.46-.36,1.99-.28Z"/>
        <path class="cls-2" d="m337.16,135.21c-3.26.95-12.59-1.59-7.03-3.75-1.71-6.17,6.33.38,7.57,2.95-.61-.03-1.42-.64-2.13-.44.17.53,1.28.8,1.59,1.24Z"/>
        <path class="cls-2" d="m340.8,134.33c.85.51,1.11,1.61.6,2.45-.52.84-1.62,1.11-2.46.6-.84-.51-1.11-1.61-.59-2.46.52-.84,1.61-1.11,2.46-.59Z"/>
      </g>
      <g>
        <path class="cls-2" d="m403.41,108.66c-2.53-1.32-6.74-8.27-2.1-6.37,2.54-4.74,3.64,3.9,2.89,6.19-.35-.37-.49-1.21-1.04-1.5-.2.41.32,1.22.24,1.68Z"/>
        <path class="cls-2" d="m405.18,108.35c-.89-2.71.98-10.62,2.96-6.01,5.13-1.61-.14,5.34-2.27,6.45,0-.51.5-1.21.31-1.81-.43.16-.63,1.1-1,1.37Z"/>
        <path class="cls-2" d="m406.48,109.45c1.33-2.53,8.31-6.7,6.38-2.07,4.73,2.56-3.93,3.62-6.21,2.86.38-.35,1.22-.48,1.51-1.03-.42-.2-1.23.31-1.68.24Z"/>
        <path class="cls-2" d="m406.76,111.1c2.74-.82,10.6,1.24,5.94,3.11,1.48,5.17-5.33-.27-6.39-2.44.51.02,1.2.53,1.79.36-.15-.44-1.08-.66-1.35-1.03Z"/>
        <path class="cls-2" d="m405.79,112.57c2.51,1.37,6.58,8.4,1.98,6.4-2.63,4.69-3.56-3.97-2.77-6.25.35.39.47,1.23,1.01,1.53.21-.41-.29-1.23-.21-1.68Z"/>
        <path class="cls-2" d="m403.95,112.96c.87,2.72-1.06,10.62-3.01,5.99-5.14,1.57.19-5.33,2.33-6.42-.01.51-.51,1.21-.32,1.8.43-.16.65-1.1,1.01-1.37Z"/>
        <path class="cls-2" d="m402.51,111.87c-1.35,2.52-8.33,6.67-6.38,2.05-4.72-2.58,3.93-3.61,6.22-2.84-.38.35-1.22.48-1.52,1.03.41.19,1.23-.3,1.68-.24Z"/>
        <path class="cls-2" d="m402.36,110.01c-2.74.8-10.58-1.34-5.91-3.16-1.43-5.18,5.33.32,6.37,2.49-.51-.02-1.2-.54-1.8-.37.15.44,1.08.67,1.33,1.04Z"/>
        <path class="cls-2" d="m405.42,109.27c.71.44.93,1.36.5,2.07-.43.7-1.36.93-2.07.49-.71-.43-.93-1.35-.5-2.06.43-.71,1.36-.94,2.07-.5Z"/>
      </g>
      <g>
        <path class="cls-2" d="m427.77,5.81c-1.9-.99-5.05-6.2-1.58-4.77,1.9-3.55,2.73,2.92,2.17,4.64-.26-.28-.37-.91-.78-1.13-.15.31.24.92.18,1.25Z"/>
        <path class="cls-2" d="m429.09,5.58c-.67-2.03.73-7.96,2.21-4.5,3.84-1.21-.1,4-1.7,4.84,0-.39.38-.91.23-1.36-.32.12-.47.83-.74,1.02Z"/>
        <path class="cls-2" d="m430.07,6.41c1-1.89,6.23-5.02,4.78-1.54,3.54,1.91-2.94,2.71-4.65,2.14.28-.26.91-.37,1.13-.78-.31-.15-.92.24-1.26.18Z"/>
        <path class="cls-2" d="m430.27,7.64c2.05-.61,7.94.93,4.45,2.33,1.11,3.87-3.99-.2-4.79-1.83.39.02.9.4,1.34.27-.11-.33-.81-.5-1.01-.77Z"/>
        <path class="cls-2" d="m429.55,8.74c1.88,1.02,4.93,6.29,1.48,4.79-1.97,3.52-2.67-2.98-2.08-4.68.26.29.35.92.76,1.15.16-.31-.22-.93-.16-1.26Z"/>
        <path class="cls-2" d="m428.17,9.04c.64,2.04-.8,7.95-2.26,4.48-3.85,1.18.14-3.99,1.74-4.82,0,.39-.38.9-.24,1.35.33-.12.48-.82.76-1.02Z"/>
        <path class="cls-2" d="m427.09,8.22c-1.01,1.89-6.24,5-4.78,1.53-3.54-1.93,2.95-2.7,4.66-2.12-.28.26-.92.36-1.14.77.31.15.92-.23,1.26-.18Z"/>
        <path class="cls-2" d="m426.98,6.83c-2.05.59-7.93-1-4.43-2.37-1.07-3.88,3.99.24,4.77,1.87-.38-.02-.89-.4-1.34-.28.11.33.81.5,1,.78Z"/>
        <path class="cls-2" d="m429.27,6.27c.53.33.7,1.02.38,1.55-.32.53-1.02.69-1.55.37-.53-.32-.7-1.01-.37-1.54.32-.53,1.02-.7,1.54-.38Z"/>
      </g>
      <path class="cls-2" d="m400.49,82.07c67.17-23.76,58.71,54.96,109.72,69.4,16.76,4.66,38.16-13.09,28.9-30.23-5.65-9.46-15.14-7.68-15.84.57-.12,3.27,5.25,6.46,7.44,2.39.81-1.48.13-3.13-1.41-4.31,2.02,3.17-.04,5.32-3.21,4.46-.89-1.35.56-2.3-1.12-4.61,1.15-3.62,3.42-4.63,7.05-2.49.85.73,1.45,1.57,1.16,2.86.78.51,2.02,0,2.84-.21,15.05,11.37-8.19,36-25.41,30.74-52.03-16.09-44.47-95.3-110.04-68.92l-.09.33Z"/>
      <g>
        <path class="cls-1" d="m313.4,84.26c.33.42.68.82,1.04,1.21-.08-.75-.13-1.55-.13-2.44-.29.42-.59.83-.91,1.22Z"/>
        <path class="cls-1" d="m314.21,59.29c.05-.24.07-.5.08-.78-1.22,1.11-2.3,2.35-3.18,3.69.31-.1.61-.2.87-.32.65-.92,1.4-1.78,2.22-2.59Z"/>
        <path class="cls-1" d="m325.2,92.03c-.45-.12-.89-.25-1.33-.39-.17.01-.33.03-.48.05.48.16.96.31,1.45.44,2.77.71,5.8.84,8.95.54-3.02.22-5.93.05-8.59-.63Z"/>
        <path class="cls-1" d="m310.18,65.05c-.21.04-.42.08-.64.12-2.41,5.8-1.28,12.07,1.99,17.17.09-.12.19-.23.27-.35-3.11-5.07-4.11-11.24-1.62-16.93Z"/>
        <path class="cls-1" d="m330.57,54.21l-.08-.24c-4.44-1.25-9.15-.18-13.06,2.2,0,.18,0,.37,0,.55,3.89-2.51,8.64-3.69,13.14-2.51Z"/>
        <path class="cls-1" d="m313.4,84.26c-.08.1-.17.2-.25.29.43.52.89,1.03,1.36,1.52-.03-.19-.05-.39-.07-.6-.36-.39-.71-.8-1.04-1.21Z"/>
        <path class="cls-1" d="m315.21,46.86c-2.71-3.68-7.93-5.67-15.25-5.67-12.04,0-19.46,5.76-19.86,14.83h3.01c.5-7.65,6.62-12.18,17.16-12.18,9.13,0,14.05,3.68,14.05,10.3v4.15c0,.08-.01.15-.02.23.96-.87,2.01-1.66,3.12-2.34-.02-3.69-.24-6.67-2.21-9.31Z"/>
        <path class="cls-1" d="m309.1,84.83c-3.61,2.93-9.03,4.82-14.85,4.82-8.43,0-13.14-4.16-13.14-11.33,0-7.75,6.42-10.48,19.76-12.09,3.58-.41,6.47-.68,8.68-1.05.38-.91.84-1.82,1.39-2.7.06-.09.12-.18.18-.27-2.58.8-6.74.98-12.56,1.76-14.05,1.89-20.77,5.57-20.77,14.83,0,8.22,6.22,13.79,15.55,13.79,8.61,0,15.53-2.92,19.8-8.02-.58-.71-1.12-1.45-1.61-2.21-.66.86-1.45,1.68-2.44,2.49Z"/>
        <path class="cls-1" d="m314.51,86.07c.6,4.01,2.61,5.84,6.62,5.84.59,0,1.32-.13,2.25-.23-3.36-1.13-6.4-3.1-8.87-5.61Z"/>
        <path class="cls-1" d="m311.99,61.88c-.19.27-.38.53-.55.8-.49.78-.91,1.57-1.26,2.37,2.07-.39,3.46-.9,4.13-1.76v7.27c0,4.96-.4,8.44-2.5,11.42.48.78,1.01,1.55,1.59,2.27.32-.4.63-.8.91-1.22,0,.88.04,1.69.13,2.44,2.56,2.78,5.81,4.97,9.43,6.16.03,0,.05,0,.08,0v-2.46c-.7.09-1.3.19-1.91.19-4.01,0-4.61-2.46-4.61-8.5v-23.89c0-.08,0-.16,0-.24-1.16.75-2.24,1.61-3.21,2.56-.24,1.25-.98,2.04-2.22,2.59Z"/>
        <path class="cls-1" d="m309.55,65.17c.22-.04.43-.08.64-.12.35-.8.77-1.59,1.26-2.37.17-.27.36-.54.55-.8-.27.12-.56.22-.87.32-.06.09-.12.18-.18.27-.56.88-1.02,1.79-1.39,2.7Z"/>
        <path class="cls-1" d="m314.44,85.47c.02.2.04.4.07.6,2.47,2.51,5.51,4.49,8.87,5.61.16-.02.31-.03.48-.05-3.62-1.19-6.87-3.38-9.43-6.16Z"/>
        <path class="cls-1" d="m317.42,56.73c0-.19,0-.37,0-.55-1.12.68-2.16,1.47-3.12,2.34-.01.27-.04.54-.08.78.97-.95,2.05-1.82,3.21-2.56Z"/>
        <path class="cls-1" d="m311.81,81.99c-.09.12-.18.23-.27.35.49.77,1.03,1.51,1.61,2.21.08-.1.17-.19.25-.29-.58-.73-1.11-1.49-1.59-2.27Z"/>
      </g>
    </g>
  </g>
</svg>